<svg width="318" height="319" viewBox="0 0 318 319" fill="none" xmlns="http://www.w3.org/2000/svg">
<rect y="0.827393" width="317.827" height="317.827" rx="95.5965" fill="url(#paint0_radial_101_444)"/>
<g filter="url(#filter0_b_101_444)">
<path d="M277.478 168.995C277.478 190.968 259.633 208.781 237.612 208.781H93.356C64.0833 208.781 40.3494 185.098 40.3494 155.873C40.3494 126.656 64.0833 102.966 93.356 102.966C95.9813 102.966 98.5618 103.167 101.092 103.533C113.062 79.8056 137.681 63.5238 166.119 63.5238C200.531 63.5238 229.359 87.3711 236.932 119.41C237.688 122.608 238.234 125.885 238.547 129.224V129.232C260.126 129.724 277.478 147.336 277.478 168.995Z" fill="url(#paint1_linear_101_444)" fill-opacity="0.8"/>
</g>
<g filter="url(#filter1_b_101_444)">
<path fill-rule="evenodd" clip-rule="evenodd" d="M101.798 104.889L100.914 104.761C98.4388 104.403 95.9178 104.207 93.356 104.207C64.7668 104.207 41.5909 127.344 41.5909 155.873C41.5909 184.41 64.7667 207.539 93.356 207.539H237.612C258.95 207.539 276.237 190.28 276.237 168.995C276.237 148.014 259.427 130.95 238.519 130.473L237.305 130.446V129.282C236.997 126.022 236.462 122.821 235.724 119.695C228.28 88.2055 199.944 64.7653 166.119 64.7653C138.167 64.7653 113.968 80.7677 102.2 104.092L101.798 104.889ZM238.547 129.224V129.232C260.126 129.724 277.478 147.336 277.478 168.995C277.478 190.968 259.633 208.781 237.612 208.781H93.356C64.0833 208.781 40.3494 185.098 40.3494 155.873C40.3494 126.656 64.0833 102.966 93.356 102.966C95.9813 102.966 98.5618 103.167 101.092 103.533C113.062 79.8056 137.681 63.5238 166.119 63.5238C200.531 63.5238 229.359 87.3711 236.932 119.41C237.688 122.608 238.234 125.885 238.547 129.224Z" fill="url(#paint2_linear_101_444)"/>
</g>
<path d="M198.938 149.188L144.53 192.983H158.058L133.96 220.891H148.148L125.711 253.602L179.493 216.181H164.645L188.402 189.488H171.42L198.938 149.188Z" fill="url(#paint3_radial_101_444)"/>
<g filter="url(#filter2_f_101_444)">
<path d="M231.542 276.133C231.542 278.704 199.026 280.789 158.914 280.789C118.802 280.789 86.2854 278.704 86.2854 276.133C86.2854 273.562 118.802 271.477 158.914 271.477C199.026 271.477 231.542 273.562 231.542 276.133Z" fill="black"/>
</g>
<defs>
<filter id="filter0_b_101_444" x="9.3116" y="32.486" width="299.205" height="207.333" filterUnits="userSpaceOnUse" color-interpolation-filters="sRGB">
<feFlood flood-opacity="0" result="BackgroundImageFix"/>
<feGaussianBlur in="BackgroundImageFix" stdDeviation="15.5189"/>
<feComposite in2="SourceAlpha" operator="in" result="effect1_backgroundBlur_101_444"/>
<feBlend mode="normal" in="SourceGraphic" in2="effect1_backgroundBlur_101_444" result="shape"/>
</filter>
<filter id="filter1_b_101_444" x="9.3116" y="32.486" width="299.205" height="207.333" filterUnits="userSpaceOnUse" color-interpolation-filters="sRGB">
<feFlood flood-opacity="0" result="BackgroundImageFix"/>
<feGaussianBlur in="BackgroundImageFix" stdDeviation="15.5189"/>
<feComposite in2="SourceAlpha" operator="in" result="effect1_backgroundBlur_101_444"/>
<feBlend mode="normal" in="SourceGraphic" in2="effect1_backgroundBlur_101_444" result="shape"/>
</filter>
<filter id="filter2_f_101_444" x="71.3872" y="256.579" width="175.053" height="39.1077" filterUnits="userSpaceOnUse" color-interpolation-filters="sRGB">
<feFlood flood-opacity="0" result="BackgroundImageFix"/>
<feBlend mode="normal" in="SourceGraphic" in2="BackgroundImageFix" result="shape"/>
<feGaussianBlur stdDeviation="7.44908" result="effect1_foregroundBlur_101_444"/>
</filter>
<radialGradient id="paint0_radial_101_444" cx="0" cy="0" r="1" gradientUnits="userSpaceOnUse" gradientTransform="translate(158.914 159.741) rotate(90) scale(158.914)">
<stop/>
<stop offset="1"/>
</radialGradient>
<linearGradient id="paint1_linear_101_444" x1="77.9052" y1="88.9748" x2="246.13" y2="208.781" gradientUnits="userSpaceOnUse">
<stop stop-color="white" stop-opacity="0.7"/>
<stop offset="1" stop-color="white" stop-opacity="0"/>
</linearGradient>
<linearGradient id="paint2_linear_101_444" x1="22.1909" y1="101.801" x2="107.093" y2="162.868" gradientUnits="userSpaceOnUse">
<stop stop-color="white"/>
<stop offset="1" stop-color="white" stop-opacity="0"/>
</linearGradient>
<radialGradient id="paint3_radial_101_444" cx="0" cy="0" r="1" gradientUnits="userSpaceOnUse" gradientTransform="translate(162.325 201.395) rotate(90) scale(72.6666 50.9618)">
<stop stop-color="#FFD88B"/>
<stop offset="1" stop-color="#FFA900"/>
</radialGradient>
</defs>
</svg>
