<svg width="319" height="319" viewBox="0 0 319 319" fill="none" xmlns="http://www.w3.org/2000/svg">
<rect x="0.978699" y="0.482178" width="317.827" height="317.827" rx="95.5965" fill="url(#paint0_radial_101_427)"/>
<g filter="url(#filter0_f_101_427)">
<path d="M232.521 275.788C232.521 278.359 200.004 280.443 159.892 280.443C119.781 280.443 87.2638 278.359 87.2638 275.788C87.2638 273.216 119.781 271.132 159.892 271.132C200.004 271.132 232.521 273.216 232.521 275.788Z" fill="black"/>
</g>
<g filter="url(#filter1_b_101_427)">
<path fill-rule="evenodd" clip-rule="evenodd" d="M102.776 67.2987L101.893 67.1708C99.4171 66.8128 96.8961 66.6165 94.3344 66.6165C65.7451 66.6165 42.5693 89.7536 42.5693 118.283C42.5693 146.82 65.745 169.949 94.3344 169.949H238.591C259.928 169.949 277.215 152.689 277.215 131.405C277.215 110.424 260.406 93.3592 239.497 92.8828L238.284 92.8552V91.6917C237.975 88.4314 237.441 85.2303 236.702 82.1045C229.258 50.6148 200.922 27.1747 167.098 27.1747C139.145 27.1747 114.946 43.177 103.179 66.5013L102.776 67.2987ZM239.525 91.6332V91.6416C261.104 92.1333 278.457 109.745 278.457 131.405C278.457 153.377 260.612 171.19 238.591 171.19H94.3344C65.0616 171.19 41.3278 147.508 41.3278 118.283C41.3278 89.0658 65.0616 65.375 94.3344 65.375C96.9597 65.375 99.5402 65.5761 102.07 65.9421C114.041 42.215 138.659 25.9332 167.098 25.9332C201.509 25.9332 230.337 49.7804 237.91 81.8189C238.666 85.0177 239.212 88.2947 239.525 91.6332Z" fill="url(#paint1_linear_101_427)"/>
</g>
<g filter="url(#filter2_b_101_427)">
<path d="M215.14 167.397C215.14 183.548 202.06 196.641 185.919 196.641H80.1814C58.7249 196.641 41.3284 179.234 41.3284 157.752C41.3284 136.276 58.7249 118.863 80.1814 118.863C82.1057 118.863 83.9971 119.01 85.8517 119.279C94.6259 101.839 112.671 89.8711 133.516 89.8711C158.739 89.8711 179.869 107.4 185.42 130.949C185.974 133.301 186.374 135.71 186.604 138.163V138.17C202.421 138.531 215.14 151.476 215.14 167.397Z" fill="url(#paint2_linear_101_427)" fill-opacity="0.8"/>
</g>
<g filter="url(#filter3_b_101_427)">
<path fill-rule="evenodd" clip-rule="evenodd" d="M86.5581 120.636L85.6728 120.508C83.8731 120.247 82.0413 120.104 80.1807 120.104C59.411 120.104 42.5692 136.961 42.5692 157.752C42.5692 178.549 59.4109 195.4 80.1807 195.4H185.918C201.373 195.4 213.898 182.863 213.898 167.397C213.898 152.152 201.719 139.757 186.575 139.411L185.362 139.383V138.222C185.137 135.846 184.748 133.513 184.211 131.234L185.42 130.949L184.211 131.234C184.211 131.234 184.211 131.234 184.211 131.234C178.789 108.232 158.148 91.1125 133.515 91.1125C113.158 91.1125 95.5319 102.799 86.9601 119.837L86.5581 120.636ZM186.603 138.163V138.17C202.42 138.531 215.14 151.476 215.14 167.397C215.14 183.548 202.059 196.641 185.918 196.641H80.1807C58.7243 196.641 41.3277 179.234 41.3277 157.752C41.3277 136.276 58.7243 118.862 80.1807 118.862C82.105 118.862 83.9965 119.01 85.851 119.279" fill="url(#paint3_linear_101_427)"/>
</g>
<path d="M91.0291 225.096C87.2951 227.257 84.7805 231.292 84.7805 235.917C84.7805 236.083 84.784 236.247 84.7897 236.411C85.0954 244.266 96.9628 244.266 97.2674 236.411C97.2743 236.247 97.2777 236.083 97.2777 235.917C97.2777 231.292 94.7632 227.257 91.0291 225.096Z" fill="#00A3FF"/>
<path d="M118.419 236.781C114.684 238.942 112.17 242.977 112.17 247.602C112.17 247.768 112.174 247.931 112.179 248.095C112.484 255.95 124.352 255.95 124.657 248.095C124.664 247.931 124.666 247.768 124.666 247.602C124.667 242.977 122.153 238.942 118.419 236.781Z" fill="#00A3FF"/>
<path d="M118.419 204.712C114.684 206.873 112.17 210.908 112.17 215.533C112.17 215.698 112.174 215.863 112.179 216.025C112.484 223.882 124.352 223.882 124.657 216.025C124.664 215.863 124.666 215.698 124.666 215.533C124.667 210.908 122.153 206.873 118.419 204.712Z" fill="#00A3FF"/>
<path d="M145.808 225.096C142.074 227.257 139.559 231.292 139.559 235.917C139.559 236.083 139.563 236.247 139.568 236.411C139.874 244.266 151.742 244.266 152.046 236.411C152.053 236.247 152.056 236.083 152.056 235.917C152.056 231.292 149.542 227.257 145.808 225.096Z" fill="#00A3FF"/>
<path d="M173.198 236.781C169.463 238.942 166.949 242.977 166.949 247.602C166.949 247.768 166.951 247.931 166.958 248.095C167.263 255.95 179.131 255.95 179.436 248.095C179.443 247.931 179.445 247.768 179.445 247.602C179.446 242.977 176.932 238.942 173.198 236.781Z" fill="#00A3FF"/>
<path d="M228.134 236.781C224.4 238.942 221.886 242.977 221.886 247.602C221.886 247.768 221.889 247.931 221.895 248.095C222.201 255.95 234.068 255.95 234.373 248.095C234.38 247.931 234.383 247.768 234.383 247.602C234.383 242.977 231.869 238.942 228.134 236.781Z" fill="#00A3FF"/>
<path d="M200.587 225.096C196.853 227.257 194.338 231.292 194.338 235.917C194.338 236.083 194.341 236.247 194.347 236.411C194.653 244.266 206.52 244.266 206.825 236.411C206.832 236.247 206.835 236.083 206.835 235.917C206.835 231.292 204.321 227.257 200.587 225.096Z" fill="#00A3FF"/>
<defs>
<filter id="filter0_f_101_427" x="72.3656" y="256.234" width="175.053" height="39.1077" filterUnits="userSpaceOnUse" color-interpolation-filters="sRGB">
<feFlood flood-opacity="0" result="BackgroundImageFix"/>
<feBlend mode="normal" in="SourceGraphic" in2="BackgroundImageFix" result="shape"/>
<feGaussianBlur stdDeviation="7.44908" result="effect1_foregroundBlur_101_427"/>
</filter>
<filter id="filter1_b_101_427" x="10.2899" y="-5.10466" width="299.205" height="207.333" filterUnits="userSpaceOnUse" color-interpolation-filters="sRGB">
<feFlood flood-opacity="0" result="BackgroundImageFix"/>
<feGaussianBlur in="BackgroundImageFix" stdDeviation="15.5189"/>
<feComposite in2="SourceAlpha" operator="in" result="effect1_backgroundBlur_101_427"/>
<feBlend mode="normal" in="SourceGraphic" in2="effect1_backgroundBlur_101_427" result="shape"/>
</filter>
<filter id="filter2_b_101_427" x="10.2905" y="58.8333" width="235.887" height="168.846" filterUnits="userSpaceOnUse" color-interpolation-filters="sRGB">
<feFlood flood-opacity="0" result="BackgroundImageFix"/>
<feGaussianBlur in="BackgroundImageFix" stdDeviation="15.5189"/>
<feComposite in2="SourceAlpha" operator="in" result="effect1_backgroundBlur_101_427"/>
<feBlend mode="normal" in="SourceGraphic" in2="effect1_backgroundBlur_101_427" result="shape"/>
</filter>
<filter id="filter3_b_101_427" x="10.2899" y="60.0747" width="235.887" height="167.604" filterUnits="userSpaceOnUse" color-interpolation-filters="sRGB">
<feFlood flood-opacity="0" result="BackgroundImageFix"/>
<feGaussianBlur in="BackgroundImageFix" stdDeviation="15.5189"/>
<feComposite in2="SourceAlpha" operator="in" result="effect1_backgroundBlur_101_427"/>
<feBlend mode="normal" in="SourceGraphic" in2="effect1_backgroundBlur_101_427" result="shape"/>
</filter>
<radialGradient id="paint0_radial_101_427" cx="0" cy="0" r="1" gradientUnits="userSpaceOnUse" gradientTransform="translate(159.892 159.396) rotate(90) scale(158.914)">
<stop/>
<stop offset="1"/>
</radialGradient>
<linearGradient id="paint1_linear_101_427" x1="23.1692" y1="64.2104" x2="108.072" y2="125.277" gradientUnits="userSpaceOnUse">
<stop stop-color="white"/>
<stop offset="1" stop-color="white" stop-opacity="0"/>
</linearGradient>
<linearGradient id="paint2_linear_101_427" x1="68.8562" y1="108.579" x2="192.395" y2="196.314" gradientUnits="userSpaceOnUse">
<stop stop-color="white" stop-opacity="0.7"/>
<stop offset="1" stop-color="white" stop-opacity="0"/>
</linearGradient>
<linearGradient id="paint3_linear_101_427" x1="28.0178" y1="118.006" x2="90.3689" y2="162.727" gradientUnits="userSpaceOnUse">
<stop stop-color="white"/>
<stop offset="1" stop-color="white" stop-opacity="0"/>
</linearGradient>
</defs>
</svg>
