<svg width="319" height="319" viewBox="0 0 319 319" fill="none" xmlns="http://www.w3.org/2000/svg">
<rect x="0.957275" y="0.827393" width="317.827" height="317.827" rx="95.5965" fill="url(#paint0_radial_101_477)"/>
<g filter="url(#filter0_b_101_477)">
<path d="M278.436 192.584C278.436 214.557 260.59 232.37 238.569 232.37H94.3131C65.0404 232.37 41.3065 208.687 41.3065 179.462C41.3065 150.245 65.0404 126.554 94.3131 126.554C96.9384 126.554 99.5189 126.756 102.049 127.122C114.02 103.394 138.638 87.1126 167.077 87.1126C201.488 87.1126 230.316 110.96 237.889 142.998C238.645 146.197 239.191 149.474 239.504 152.813V152.821C261.083 153.313 278.436 170.924 278.436 192.584Z" fill="url(#paint1_linear_101_477)" fill-opacity="0.8"/>
</g>
<g filter="url(#filter1_b_101_477)">
<path fill-rule="evenodd" clip-rule="evenodd" d="M102.755 128.478L101.871 128.35C99.3959 127.992 96.8749 127.796 94.3131 127.796C65.7239 127.796 42.548 150.933 42.548 179.462C42.548 207.999 65.7238 231.128 94.3131 231.128H238.569C259.907 231.128 277.194 213.869 277.194 192.584C277.194 171.603 260.384 154.539 239.476 154.062L238.263 154.035V152.871C237.954 149.611 237.419 146.41 236.681 143.284C229.237 111.794 200.901 88.3541 167.077 88.3541C139.124 88.3541 114.925 104.356 103.157 127.681L102.755 128.478ZM239.504 152.813V152.821C261.083 153.313 278.436 170.924 278.436 192.584C278.436 214.557 260.59 232.37 238.569 232.37H94.3131C65.0404 232.37 41.3065 208.687 41.3065 179.462C41.3065 150.245 65.0404 126.554 94.3131 126.554C96.9384 126.554 99.5189 126.756 102.049 127.122C114.02 103.394 138.638 87.1126 167.077 87.1126C201.488 87.1126 230.316 110.96 237.889 142.998C238.645 146.197 239.191 149.474 239.504 152.813Z" fill="url(#paint2_linear_101_477)"/>
</g>
<g filter="url(#filter2_f_101_477)">
<path d="M232.499 276.133C232.499 278.704 199.983 280.789 159.871 280.789C119.759 280.789 87.2424 278.704 87.2424 276.133C87.2424 273.562 119.759 271.477 159.871 271.477C199.983 271.477 232.499 273.562 232.499 276.133Z" fill="black"/>
</g>
<defs>
<filter id="filter0_b_101_477" x="10.2687" y="56.0748" width="299.205" height="207.333" filterUnits="userSpaceOnUse" color-interpolation-filters="sRGB">
<feFlood flood-opacity="0" result="BackgroundImageFix"/>
<feGaussianBlur in="BackgroundImageFix" stdDeviation="15.5189"/>
<feComposite in2="SourceAlpha" operator="in" result="effect1_backgroundBlur_101_477"/>
<feBlend mode="normal" in="SourceGraphic" in2="effect1_backgroundBlur_101_477" result="shape"/>
</filter>
<filter id="filter1_b_101_477" x="10.2687" y="56.0748" width="299.205" height="207.333" filterUnits="userSpaceOnUse" color-interpolation-filters="sRGB">
<feFlood flood-opacity="0" result="BackgroundImageFix"/>
<feGaussianBlur in="BackgroundImageFix" stdDeviation="15.5189"/>
<feComposite in2="SourceAlpha" operator="in" result="effect1_backgroundBlur_101_477"/>
<feBlend mode="normal" in="SourceGraphic" in2="effect1_backgroundBlur_101_477" result="shape"/>
</filter>
<filter id="filter2_f_101_477" x="72.3443" y="256.579" width="175.053" height="39.1077" filterUnits="userSpaceOnUse" color-interpolation-filters="sRGB">
<feFlood flood-opacity="0" result="BackgroundImageFix"/>
<feBlend mode="normal" in="SourceGraphic" in2="BackgroundImageFix" result="shape"/>
<feGaussianBlur stdDeviation="7.44908" result="effect1_foregroundBlur_101_477"/>
</filter>
<radialGradient id="paint0_radial_101_477" cx="0" cy="0" r="1" gradientUnits="userSpaceOnUse" gradientTransform="translate(159.871 159.741) rotate(90) scale(158.914)">
<stop/>
<stop offset="1"/>
</radialGradient>
<linearGradient id="paint1_linear_101_477" x1="78.8623" y1="112.564" x2="247.087" y2="232.37" gradientUnits="userSpaceOnUse">
<stop stop-color="white" stop-opacity="0.7"/>
<stop offset="1" stop-color="white" stop-opacity="0"/>
</linearGradient>
<linearGradient id="paint2_linear_101_477" x1="23.148" y1="125.39" x2="108.051" y2="186.457" gradientUnits="userSpaceOnUse">
<stop stop-color="white"/>
<stop offset="1" stop-color="white" stop-opacity="0"/>
</linearGradient>
</defs>
</svg>
