<svg width="319" height="319" viewBox="0 0 319 319" fill="none" xmlns="http://www.w3.org/2000/svg">
<rect x="0.893311" y="0.482178" width="317.827" height="317.827" rx="95.5965" fill="url(#paint0_radial_101_366)"/>
<path d="M165.549 165.839C149.318 174.778 138.391 191.465 138.391 210.589C138.391 211.272 138.401 211.951 138.43 212.625C139.758 245.112 191.339 245.112 192.667 212.625C192.697 211.951 192.707 211.272 192.707 210.589C192.712 191.465 181.779 174.778 165.549 165.839Z" fill="#00A3FF"/>
<path d="M117.205 81.8012C97.4089 92.5004 84.0747 112.471 84.0747 135.359C84.0747 136.178 84.0928 136.99 84.1291 137.803C85.743 176.678 148.66 176.678 150.28 137.803C150.31 136.99 150.329 136.178 150.329 135.359C150.329 112.471 137 92.5004 117.205 81.8012Z" fill="#00A3FF"/>
<path d="M210.613 103.091C195.988 111.115 186.141 126.093 186.141 143.259C186.141 143.873 186.155 144.483 186.177 145.092C187.374 174.248 233.853 174.248 235.05 145.092C235.076 144.483 235.085 143.873 235.085 143.259C235.09 126.093 225.243 111.115 210.613 103.091Z" fill="#00A3FF"/>
<defs>
<radialGradient id="paint0_radial_101_366" cx="0" cy="0" r="1" gradientUnits="userSpaceOnUse" gradientTransform="translate(159.807 159.396) rotate(90) scale(158.914)">
<stop/>
<stop offset="1"/>
</radialGradient>
</defs>
</svg>
