<svg width="319" height="319" viewBox="0 0 319 319" fill="none" xmlns="http://www.w3.org/2000/svg">
<rect x="0.957275" y="0.482178" width="317.827" height="317.827" rx="95.5965" fill="url(#paint0_radial_101_395)"/>
<g filter="url(#filter0_f_101_395)">
<path d="M232.499 275.788C232.499 278.359 199.983 280.443 159.871 280.443C119.759 280.443 87.2424 278.359 87.2424 275.788C87.2424 273.216 119.759 271.132 159.871 271.132C199.983 271.132 232.499 273.216 232.499 275.788Z" fill="black"/>
</g>
<g filter="url(#filter1_b_101_395)">
<path d="M278.436 131.405C278.436 153.377 260.59 171.19 238.569 171.19H94.3131C65.0404 171.19 41.3065 147.508 41.3065 118.283C41.3065 89.0658 65.0404 65.375 94.3131 65.375C96.9384 65.375 99.5189 65.5761 102.049 65.9421C114.02 42.215 138.638 25.9332 167.077 25.9332C201.488 25.9332 230.316 49.7804 237.889 81.8189C238.645 85.0177 239.191 88.2947 239.504 91.6332V91.6416C261.083 92.1333 278.436 109.745 278.436 131.405Z" fill="url(#paint1_linear_101_395)" fill-opacity="0.8"/>
</g>
<g filter="url(#filter2_b_101_395)">
<path fill-rule="evenodd" clip-rule="evenodd" d="M102.755 67.2987L101.871 67.1708C99.3959 66.8128 96.8749 66.6165 94.3131 66.6165C65.7239 66.6165 42.548 89.7536 42.548 118.283C42.548 146.82 65.7238 169.949 94.3131 169.949H238.569C259.907 169.949 277.194 152.689 277.194 131.405C277.194 110.424 260.384 93.3592 239.476 92.8828L238.263 92.8552V91.6917C237.954 88.4314 237.419 85.2303 236.681 82.1045C229.237 50.6148 200.901 27.1747 167.077 27.1747C139.124 27.1747 114.925 43.177 103.157 66.5013L102.755 67.2987ZM239.504 91.6332V91.6416C261.083 92.1333 278.436 109.745 278.436 131.405C278.436 153.377 260.59 171.19 238.569 171.19H94.3131C65.0404 171.19 41.3065 147.508 41.3065 118.283C41.3065 89.0658 65.0404 65.375 94.3131 65.375C96.9384 65.375 99.5189 65.5761 102.049 65.9421C114.02 42.215 138.638 25.9332 167.077 25.9332C201.488 25.9332 230.316 49.7804 237.889 81.8189C238.645 85.0177 239.191 88.2947 239.504 91.6332Z" fill="url(#paint2_linear_101_395)"/>
</g>
<g filter="url(#filter3_b_101_395)">
<path d="M215.119 167.397C215.119 183.548 202.039 196.641 185.898 196.641H80.1601C58.7037 196.641 41.3071 179.234 41.3071 157.752C41.3071 136.276 58.7037 118.863 80.1601 118.863C82.0844 118.863 83.9759 119.01 85.8304 119.279C94.6046 101.839 112.649 89.8711 133.495 89.8711C158.718 89.8711 179.848 107.4 185.399 130.949C185.953 133.301 186.353 135.71 186.583 138.163V138.17C202.4 138.531 215.119 151.476 215.119 167.397Z" fill="url(#paint3_linear_101_395)" fill-opacity="0.8"/>
</g>
<g filter="url(#filter4_b_101_395)">
<path fill-rule="evenodd" clip-rule="evenodd" d="M86.537 120.636L85.6517 120.508C83.852 120.247 82.0202 120.104 80.1597 120.104C59.39 120.104 42.5482 136.961 42.5482 157.752C42.5482 178.549 59.3899 195.4 80.1597 195.4H185.897C201.352 195.4 213.877 182.863 213.877 167.397C213.877 152.152 201.697 139.757 186.554 139.411L185.341 139.383V138.222C185.116 135.846 184.727 133.513 184.19 131.234L185.399 130.949L184.19 131.234C184.19 131.234 184.19 131.234 184.19 131.234C178.768 108.232 158.127 91.1125 133.494 91.1125C113.137 91.1125 95.5108 102.799 86.939 119.837L86.537 120.636ZM186.582 138.163V138.17C202.399 138.531 215.118 151.476 215.118 167.397C215.118 183.548 202.038 196.641 185.897 196.641H80.1597C58.7032 196.641 41.3066 179.234 41.3066 157.752C41.3066 136.276 58.7032 118.862 80.1597 118.862C82.0839 118.862 83.9754 119.01 85.83 119.279" fill="url(#paint4_linear_101_395)"/>
</g>
<path d="M220.064 245.06C213.55 245.06 208.25 239.63 208.25 232.956C208.25 231.614 209.312 230.527 210.62 230.527C211.929 230.527 212.989 231.614 212.989 232.956C212.989 236.952 216.163 240.204 220.064 240.204C223.965 240.204 227.139 236.952 227.139 232.956C227.139 228.958 223.965 225.707 220.064 225.707H118.168C116.858 225.707 115.798 224.619 115.798 223.278C115.798 221.938 116.858 220.851 118.168 220.851H220.064C226.579 220.851 231.879 226.28 231.879 232.956C231.879 239.63 226.579 245.06 220.064 245.06Z" fill="#818494"/>
<path d="M112.168 235.749H90.2527C88.9339 235.749 87.8635 234.776 87.8635 233.577C87.8635 232.376 88.9339 231.404 90.2527 231.404H112.168C113.487 231.404 114.556 232.376 114.556 233.577C114.556 234.776 113.487 235.749 112.168 235.749Z" fill="#818494"/>
<path d="M175.363 254.372C168.844 254.372 163.542 249.219 163.542 242.888C163.542 241.616 164.603 240.583 165.913 240.583C167.222 240.583 168.284 241.616 168.284 242.888C168.284 246.679 171.459 249.764 175.363 249.764C179.266 249.764 182.442 246.679 182.442 242.888C182.442 239.096 179.266 236.011 175.363 236.011H121.272C119.963 236.011 118.901 234.98 118.901 233.707C118.901 232.435 119.963 231.404 121.272 231.404H175.363C181.881 231.404 187.185 236.556 187.185 242.888C187.185 249.219 181.881 254.372 175.363 254.372Z" fill="#818494"/>
<path d="M152.526 246.923H100.176C98.862 246.923 97.7957 245.811 97.7957 244.439C97.7957 243.068 98.862 241.956 100.176 241.956H152.526C153.84 241.956 154.905 243.068 154.905 244.439C154.905 245.811 153.84 246.923 152.526 246.923Z" fill="#818494"/>
<path d="M131.481 215.885H95.77C94.4884 215.885 93.4503 214.911 93.4503 213.712C93.4503 212.512 94.4884 211.539 95.77 211.539H131.481C132.761 211.539 133.799 212.512 133.799 213.712C133.799 214.911 132.761 215.885 131.481 215.885Z" fill="#818494"/>
<defs>
<filter id="filter0_f_101_395" x="72.3443" y="256.234" width="175.053" height="39.1077" filterUnits="userSpaceOnUse" color-interpolation-filters="sRGB">
<feFlood flood-opacity="0" result="BackgroundImageFix"/>
<feBlend mode="normal" in="SourceGraphic" in2="BackgroundImageFix" result="shape"/>
<feGaussianBlur stdDeviation="7.44908" result="effect1_foregroundBlur_101_395"/>
</filter>
<filter id="filter1_b_101_395" x="10.2687" y="-5.10466" width="299.205" height="207.333" filterUnits="userSpaceOnUse" color-interpolation-filters="sRGB">
<feFlood flood-opacity="0" result="BackgroundImageFix"/>
<feGaussianBlur in="BackgroundImageFix" stdDeviation="15.5189"/>
<feComposite in2="SourceAlpha" operator="in" result="effect1_backgroundBlur_101_395"/>
<feBlend mode="normal" in="SourceGraphic" in2="effect1_backgroundBlur_101_395" result="shape"/>
</filter>
<filter id="filter2_b_101_395" x="10.2687" y="-5.10466" width="299.205" height="207.333" filterUnits="userSpaceOnUse" color-interpolation-filters="sRGB">
<feFlood flood-opacity="0" result="BackgroundImageFix"/>
<feGaussianBlur in="BackgroundImageFix" stdDeviation="15.5189"/>
<feComposite in2="SourceAlpha" operator="in" result="effect1_backgroundBlur_101_395"/>
<feBlend mode="normal" in="SourceGraphic" in2="effect1_backgroundBlur_101_395" result="shape"/>
</filter>
<filter id="filter3_b_101_395" x="10.2693" y="58.8333" width="235.887" height="168.846" filterUnits="userSpaceOnUse" color-interpolation-filters="sRGB">
<feFlood flood-opacity="0" result="BackgroundImageFix"/>
<feGaussianBlur in="BackgroundImageFix" stdDeviation="15.5189"/>
<feComposite in2="SourceAlpha" operator="in" result="effect1_backgroundBlur_101_395"/>
<feBlend mode="normal" in="SourceGraphic" in2="effect1_backgroundBlur_101_395" result="shape"/>
</filter>
<filter id="filter4_b_101_395" x="10.2688" y="60.0747" width="235.887" height="167.604" filterUnits="userSpaceOnUse" color-interpolation-filters="sRGB">
<feFlood flood-opacity="0" result="BackgroundImageFix"/>
<feGaussianBlur in="BackgroundImageFix" stdDeviation="15.5189"/>
<feComposite in2="SourceAlpha" operator="in" result="effect1_backgroundBlur_101_395"/>
<feBlend mode="normal" in="SourceGraphic" in2="effect1_backgroundBlur_101_395" result="shape"/>
</filter>
<radialGradient id="paint0_radial_101_395" cx="0" cy="0" r="1" gradientUnits="userSpaceOnUse" gradientTransform="translate(159.871 159.396) rotate(90) scale(158.914)">
<stop/>
<stop offset="1"/>
</radialGradient>
<linearGradient id="paint1_linear_101_395" x1="78.8623" y1="51.3842" x2="247.087" y2="171.19" gradientUnits="userSpaceOnUse">
<stop stop-color="white" stop-opacity="0.7"/>
<stop offset="1" stop-color="white" stop-opacity="0"/>
</linearGradient>
<linearGradient id="paint2_linear_101_395" x1="23.148" y1="64.2104" x2="108.051" y2="125.277" gradientUnits="userSpaceOnUse">
<stop stop-color="white"/>
<stop offset="1" stop-color="white" stop-opacity="0"/>
</linearGradient>
<linearGradient id="paint3_linear_101_395" x1="68.8349" y1="108.579" x2="192.374" y2="196.314" gradientUnits="userSpaceOnUse">
<stop stop-color="white" stop-opacity="0.7"/>
<stop offset="1" stop-color="white" stop-opacity="0"/>
</linearGradient>
<linearGradient id="paint4_linear_101_395" x1="27.9967" y1="118.006" x2="90.3478" y2="162.727" gradientUnits="userSpaceOnUse">
<stop stop-color="white"/>
<stop offset="1" stop-color="white" stop-opacity="0"/>
</linearGradient>
</defs>
</svg>
