<svg width="319" height="319" viewBox="0 0 319 319" fill="none" xmlns="http://www.w3.org/2000/svg">
<rect x="0.978699" y="0.827393" width="317.827" height="317.827" rx="95.5965" fill="url(#paint0_radial_101_410)"/>
<g filter="url(#filter0_f_101_410)">
<path d="M232.521 276.133C232.521 278.704 200.004 280.789 159.892 280.789C119.781 280.789 87.2638 278.704 87.2638 276.133C87.2638 273.562 119.781 271.477 159.892 271.477C200.004 271.477 232.521 273.562 232.521 276.133Z" fill="black"/>
</g>
<g filter="url(#filter1_b_101_410)">
<path d="M278.457 131.75C278.457 153.723 260.612 171.535 238.591 171.535H94.3344C65.0616 171.535 41.3278 147.853 41.3278 118.628C41.3278 89.4111 65.0616 65.7203 94.3344 65.7203C96.9597 65.7203 99.5402 65.9214 102.07 66.2874C114.041 42.5603 138.659 26.2784 167.098 26.2784C201.509 26.2784 230.337 50.1257 237.91 82.1642C238.666 85.363 239.212 88.64 239.525 91.9785V91.9869C261.104 92.4786 278.457 110.09 278.457 131.75Z" fill="url(#paint1_linear_101_410)" fill-opacity="0.8"/>
</g>
<g filter="url(#filter2_b_101_410)">
<path fill-rule="evenodd" clip-rule="evenodd" d="M102.776 67.644L101.893 67.5161C99.4171 67.1581 96.8961 66.9618 94.3344 66.9618C65.7451 66.9618 42.5693 90.0989 42.5693 118.628C42.5693 147.165 65.745 170.294 94.3344 170.294H238.591C259.928 170.294 277.215 153.035 277.215 131.75C277.215 110.769 260.406 93.7045 239.497 93.2281L238.284 93.2004V92.0369C237.975 88.7767 237.441 85.5756 236.702 82.4498C229.258 50.9601 200.922 27.52 167.098 27.52C139.145 27.52 114.946 43.5223 103.179 66.8466L102.776 67.644ZM239.525 91.9785V91.9869C261.104 92.4786 278.457 110.09 278.457 131.75C278.457 153.723 260.612 171.535 238.591 171.535H94.3344C65.0616 171.535 41.3278 147.853 41.3278 118.628C41.3278 89.4111 65.0616 65.7203 94.3344 65.7203C96.9597 65.7203 99.5402 65.9214 102.07 66.2874C114.041 42.5603 138.659 26.2784 167.098 26.2784C201.509 26.2784 230.337 50.1257 237.91 82.1642C238.666 85.363 239.212 88.64 239.525 91.9785Z" fill="url(#paint2_linear_101_410)"/>
</g>
<g filter="url(#filter3_b_101_410)">
<path d="M215.14 167.742C215.14 183.893 202.06 196.986 185.919 196.986H80.1814C58.7249 196.986 41.3284 179.579 41.3284 158.097C41.3284 136.622 58.7249 119.208 80.1814 119.208C82.1057 119.208 83.9971 119.356 85.8517 119.625C94.6259 102.184 112.671 90.2164 133.516 90.2164C158.739 90.2164 179.869 107.745 185.42 131.295C185.974 133.646 186.374 136.055 186.604 138.509V138.515C202.421 138.876 215.14 151.822 215.14 167.742Z" fill="url(#paint3_linear_101_410)" fill-opacity="0.8"/>
</g>
<g filter="url(#filter4_b_101_410)">
<path fill-rule="evenodd" clip-rule="evenodd" d="M86.5581 120.982L85.6728 120.853C83.8731 120.592 82.0413 120.449 80.1807 120.449C59.411 120.449 42.5692 137.306 42.5692 158.097C42.5692 178.894 59.4109 195.745 80.1807 195.745H185.918C201.373 195.745 213.898 183.209 213.898 167.743C213.898 152.497 201.719 140.102 186.575 139.756L185.362 139.728V138.567C185.137 136.191 184.748 133.858 184.211 131.579L185.42 131.295L184.211 131.58C184.211 131.58 184.211 131.58 184.211 131.579C178.789 108.577 158.148 91.4579 133.515 91.4579C113.158 91.4579 95.5319 103.144 86.9601 120.183L86.5581 120.982ZM186.603 138.509V138.515C202.42 138.876 215.14 151.822 215.14 167.743C215.14 183.893 202.059 196.987 185.918 196.987H80.1807C58.7243 196.987 41.3277 179.579 41.3277 158.097C41.3277 136.622 58.7243 119.208 80.1807 119.208C82.105 119.208 83.9965 119.356 85.851 119.625" fill="url(#paint4_linear_101_410)"/>
</g>
<path d="M111.144 213.748C110.465 212.582 108.964 212.184 107.79 212.856L102.755 215.739V209.974C102.755 208.63 101.655 207.539 100.299 207.539C98.9437 207.539 97.844 208.63 97.844 209.974V215.739L92.8089 212.856C91.6346 212.183 90.1336 212.582 89.4551 213.748C88.7779 214.912 89.1792 216.4 90.3535 217.073L95.3886 219.955L90.3535 222.836C89.1792 223.509 88.7779 224.997 89.4551 226.162C89.9099 226.943 90.735 227.38 91.5837 227.38C92 227.38 92.4225 227.274 92.8089 227.054L97.844 224.171V229.935C97.844 231.279 98.9437 232.37 100.299 232.37C101.655 232.37 102.755 231.279 102.755 229.935V224.171L107.79 227.054C108.176 227.274 108.599 227.38 109.015 227.38C109.864 227.38 110.689 226.943 111.144 226.162C111.822 224.997 111.42 223.509 110.245 222.836L105.21 219.955L110.245 217.073C111.42 216.4 111.822 214.912 111.144 213.748Z" fill="#818494"/>
<path d="M229.43 222.836L224.395 219.955L229.43 217.073C230.605 216.4 231.007 214.912 230.329 213.748C229.65 212.582 228.149 212.184 226.975 212.856L221.94 215.739V209.974C221.94 208.63 220.84 207.539 219.484 207.539C218.129 207.539 217.029 208.63 217.029 209.974V215.739L211.994 212.856C210.82 212.183 209.319 212.582 208.64 213.748C207.963 214.912 208.364 216.4 209.539 217.073L214.574 219.955L209.539 222.836C208.364 223.509 207.963 224.997 208.64 226.161C209.095 226.943 209.92 227.38 210.769 227.38C211.185 227.38 211.608 227.274 211.994 227.053L217.029 224.17V229.935C217.029 231.279 218.129 232.37 219.484 232.37C220.84 232.37 221.94 231.279 221.94 229.935V224.17L226.975 227.053C227.361 227.274 227.784 227.38 228.2 227.38C229.049 227.38 229.874 226.943 230.329 226.161C231.007 224.997 230.605 223.509 229.43 222.836Z" fill="#818494"/>
<path d="M170.736 213.748C170.058 212.583 168.557 212.184 167.382 212.856L162.348 215.739V209.974C162.348 208.63 161.248 207.539 159.892 207.539C158.537 207.539 157.437 208.63 157.437 209.974V215.739L152.402 212.856C151.228 212.184 149.727 212.583 149.048 213.748C148.37 214.912 148.772 216.4 149.947 217.073L154.982 219.955L149.947 222.836C148.772 223.509 148.37 224.997 149.048 226.161C149.503 226.943 150.328 227.38 151.177 227.38C151.593 227.38 152.015 227.274 152.402 227.053L157.437 224.17V229.935C157.437 231.279 158.537 232.37 159.892 232.37C161.248 232.37 162.348 231.279 162.348 229.935V224.172L167.382 227.053C167.769 227.275 168.191 227.38 168.608 227.38C169.456 227.38 170.281 226.943 170.736 226.163C171.413 224.998 171.012 223.509 169.838 222.837L164.803 219.955L169.838 217.073C171.012 216.4 171.415 214.912 170.736 213.748Z" fill="#818494"/>
<path d="M140.319 235.474C139.641 234.309 138.14 233.911 136.965 234.582L131.93 237.465V231.7C131.93 230.356 130.831 229.266 129.475 229.266C128.119 229.266 127.02 230.356 127.02 231.7V237.465L121.984 234.582C120.81 233.909 119.309 234.309 118.631 235.474C117.953 236.638 118.355 238.127 119.529 238.799L124.564 241.681L119.529 244.563C118.355 245.235 117.953 246.724 118.631 247.888C119.085 248.669 119.911 249.106 120.759 249.106C121.176 249.106 121.598 249 121.984 248.78L127.02 245.897V251.662C127.02 253.006 128.119 254.096 129.475 254.096C130.831 254.096 131.93 253.006 131.93 251.662V245.897L136.965 248.78C137.352 249 137.774 249.106 138.191 249.106C139.039 249.106 139.864 248.669 140.319 247.888C140.998 246.724 140.595 245.235 139.421 244.563L134.386 241.681L139.421 238.799C140.595 238.127 140.998 236.638 140.319 235.474Z" fill="#818494"/>
<path d="M258.606 244.563L253.571 241.681L258.606 238.799C259.78 238.127 260.183 236.638 259.505 235.474C258.826 234.308 257.325 233.911 256.151 234.582L251.116 237.465V231.7C251.116 230.356 250.016 229.266 248.66 229.266C247.305 229.266 246.205 230.356 246.205 231.7V237.465L241.17 234.582C239.996 233.909 238.494 234.308 237.816 235.474C237.139 236.638 237.54 238.127 238.714 238.799L243.749 241.681L238.714 244.563C237.54 245.235 237.139 246.724 237.816 247.888C238.271 248.669 239.096 249.106 239.945 249.106C240.361 249.106 240.783 249 241.17 248.78L246.205 245.897V251.662C246.205 253.006 247.305 254.096 248.66 254.096C250.016 254.096 251.116 253.006 251.116 251.662V245.897L256.151 248.78C256.537 249 256.96 249.106 257.376 249.106C258.225 249.106 259.05 248.669 259.505 247.888C260.183 246.724 259.78 245.235 258.606 244.563Z" fill="#818494"/>
<path d="M199.912 235.474C199.234 234.31 197.732 233.911 196.558 234.582L191.523 237.465V231.7C191.523 230.356 190.424 229.266 189.068 229.266C187.712 229.266 186.613 230.356 186.613 231.7V237.465L181.578 234.582C180.403 233.911 178.902 234.31 178.224 235.474C177.546 236.638 177.948 238.127 179.122 238.799L184.157 241.681L179.122 244.563C177.948 245.235 177.546 246.724 178.224 247.888C178.679 248.669 179.504 249.106 180.352 249.106C180.769 249.106 181.191 249 181.578 248.78L186.613 245.897V251.662C186.613 253.006 187.712 254.096 189.068 254.096C190.424 254.096 191.523 253.006 191.523 251.662V245.898L196.558 248.78C196.945 249.002 197.367 249.106 197.783 249.106C198.632 249.106 199.457 248.669 199.912 247.889C200.589 246.725 200.188 245.235 199.014 244.564L193.979 241.681L199.014 238.799C200.188 238.127 200.59 236.638 199.912 235.474Z" fill="#818494"/>
<defs>
<filter id="filter0_f_101_410" x="72.3656" y="256.579" width="175.053" height="39.1077" filterUnits="userSpaceOnUse" color-interpolation-filters="sRGB">
<feFlood flood-opacity="0" result="BackgroundImageFix"/>
<feBlend mode="normal" in="SourceGraphic" in2="BackgroundImageFix" result="shape"/>
<feGaussianBlur stdDeviation="7.44908" result="effect1_foregroundBlur_101_410"/>
</filter>
<filter id="filter1_b_101_410" x="10.2899" y="-4.75939" width="299.205" height="207.333" filterUnits="userSpaceOnUse" color-interpolation-filters="sRGB">
<feFlood flood-opacity="0" result="BackgroundImageFix"/>
<feGaussianBlur in="BackgroundImageFix" stdDeviation="15.5189"/>
<feComposite in2="SourceAlpha" operator="in" result="effect1_backgroundBlur_101_410"/>
<feBlend mode="normal" in="SourceGraphic" in2="effect1_backgroundBlur_101_410" result="shape"/>
</filter>
<filter id="filter2_b_101_410" x="10.2899" y="-4.75939" width="299.205" height="207.333" filterUnits="userSpaceOnUse" color-interpolation-filters="sRGB">
<feFlood flood-opacity="0" result="BackgroundImageFix"/>
<feGaussianBlur in="BackgroundImageFix" stdDeviation="15.5189"/>
<feComposite in2="SourceAlpha" operator="in" result="effect1_backgroundBlur_101_410"/>
<feBlend mode="normal" in="SourceGraphic" in2="effect1_backgroundBlur_101_410" result="shape"/>
</filter>
<filter id="filter3_b_101_410" x="10.2905" y="59.1785" width="235.887" height="168.846" filterUnits="userSpaceOnUse" color-interpolation-filters="sRGB">
<feFlood flood-opacity="0" result="BackgroundImageFix"/>
<feGaussianBlur in="BackgroundImageFix" stdDeviation="15.5189"/>
<feComposite in2="SourceAlpha" operator="in" result="effect1_backgroundBlur_101_410"/>
<feBlend mode="normal" in="SourceGraphic" in2="effect1_backgroundBlur_101_410" result="shape"/>
</filter>
<filter id="filter4_b_101_410" x="10.2899" y="60.4201" width="235.887" height="167.604" filterUnits="userSpaceOnUse" color-interpolation-filters="sRGB">
<feFlood flood-opacity="0" result="BackgroundImageFix"/>
<feGaussianBlur in="BackgroundImageFix" stdDeviation="15.5189"/>
<feComposite in2="SourceAlpha" operator="in" result="effect1_backgroundBlur_101_410"/>
<feBlend mode="normal" in="SourceGraphic" in2="effect1_backgroundBlur_101_410" result="shape"/>
</filter>
<radialGradient id="paint0_radial_101_410" cx="0" cy="0" r="1" gradientUnits="userSpaceOnUse" gradientTransform="translate(159.892 159.741) rotate(90) scale(158.914)">
<stop/>
<stop offset="1"/>
</radialGradient>
<linearGradient id="paint1_linear_101_410" x1="78.8835" y1="51.7295" x2="247.109" y2="171.535" gradientUnits="userSpaceOnUse">
<stop stop-color="white" stop-opacity="0.7"/>
<stop offset="1" stop-color="white" stop-opacity="0"/>
</linearGradient>
<linearGradient id="paint2_linear_101_410" x1="23.1692" y1="64.5556" x2="108.072" y2="125.623" gradientUnits="userSpaceOnUse">
<stop stop-color="white"/>
<stop offset="1" stop-color="white" stop-opacity="0"/>
</linearGradient>
<linearGradient id="paint3_linear_101_410" x1="68.8562" y1="108.924" x2="192.395" y2="196.659" gradientUnits="userSpaceOnUse">
<stop stop-color="white" stop-opacity="0.7"/>
<stop offset="1" stop-color="white" stop-opacity="0"/>
</linearGradient>
<linearGradient id="paint4_linear_101_410" x1="28.0178" y1="118.352" x2="90.3689" y2="163.073" gradientUnits="userSpaceOnUse">
<stop stop-color="white"/>
<stop offset="1" stop-color="white" stop-opacity="0"/>
</linearGradient>
</defs>
</svg>
