<svg width="319" height="319" viewBox="0 0 319 319" fill="none" xmlns="http://www.w3.org/2000/svg">
<rect x="0.893311" y="0.827393" width="317.827" height="317.827" rx="95.5965" fill="url(#paint0_radial_101_384)"/>
<g filter="url(#filter0_f_101_384)">
<path d="M232.436 276.133C232.436 278.704 199.919 280.789 159.807 280.789C119.695 280.789 87.1785 278.704 87.1785 276.133C87.1785 273.562 119.695 271.477 159.807 271.477C199.919 271.477 232.436 273.562 232.436 276.133Z" fill="black"/>
</g>
<g filter="url(#filter1_b_101_384)">
<path d="M278.371 137.958C278.371 159.93 260.526 177.743 238.505 177.743H94.2491C64.9763 177.743 41.2424 154.061 41.2424 124.835C41.2424 95.6186 64.9763 71.9278 94.2491 71.9278C96.8743 71.9278 99.4548 72.129 101.985 72.495C113.955 48.7678 138.574 32.486 167.012 32.486C201.424 32.486 230.252 56.3332 237.825 88.3717C238.581 91.5705 239.127 94.8476 239.44 98.1861V98.1944C261.019 98.6861 278.371 116.298 278.371 137.958Z" fill="url(#paint1_linear_101_384)" fill-opacity="0.8"/>
</g>
<g filter="url(#filter2_b_101_384)">
<path fill-rule="evenodd" clip-rule="evenodd" d="M102.691 73.8515L101.807 73.7237C99.3318 73.3656 96.8108 73.1693 94.2491 73.1693C65.6598 73.1693 42.4839 96.3065 42.4839 124.835C42.4839 153.373 65.6597 176.502 94.2491 176.502H238.505C259.843 176.502 277.13 159.242 277.13 137.958C277.13 116.977 260.32 99.9121 239.412 99.4356L238.199 99.408V98.2445C237.89 94.9842 237.355 91.7832 236.617 88.6573C229.173 57.1677 200.837 33.7275 167.012 33.7275C139.06 33.7275 114.861 49.7299 103.093 73.0542L102.691 73.8515ZM239.44 98.1861V98.1944C261.019 98.6861 278.371 116.298 278.371 137.958C278.371 159.93 260.526 177.743 238.505 177.743H94.2491C64.9763 177.743 41.2424 154.061 41.2424 124.835C41.2424 95.6186 64.9763 71.9278 94.2491 71.9278C96.8743 71.9278 99.4548 72.129 101.985 72.495C113.955 48.7678 138.574 32.486 167.012 32.486C201.424 32.486 230.252 56.3332 237.825 88.3717C238.581 91.5705 239.127 94.8476 239.44 98.1861Z" fill="url(#paint2_linear_101_384)"/>
</g>
<g filter="url(#filter3_b_101_384)">
<path d="M215.054 173.95C215.054 190.101 201.974 203.194 185.833 203.194H80.0954C58.639 203.194 41.2424 185.786 41.2424 164.305C41.2424 142.829 58.639 125.415 80.0954 125.415C82.0197 125.415 83.9112 125.563 85.7657 125.832C94.5399 108.392 112.585 96.4239 133.43 96.4239C158.653 96.4239 179.783 113.953 185.334 137.502C185.888 139.854 186.288 142.262 186.518 144.716V144.722C202.335 145.084 215.054 158.029 215.054 173.95Z" fill="url(#paint3_linear_101_384)" fill-opacity="0.8"/>
</g>
<g filter="url(#filter4_b_101_384)">
<path fill-rule="evenodd" clip-rule="evenodd" d="M86.4728 127.189L85.5875 127.061C83.7878 126.8 81.956 126.657 80.0954 126.657C59.3258 126.657 42.4839 143.514 42.4839 164.305C42.4839 185.102 59.3257 201.953 80.0954 201.953H185.833C201.287 201.953 213.813 189.416 213.813 173.95C213.813 158.705 201.633 146.31 186.49 145.964L185.277 145.936V144.775C185.051 142.399 184.663 140.066 184.126 137.787L185.334 137.502L184.126 137.787C184.126 137.787 184.126 137.787 184.126 137.787C178.704 114.784 158.063 97.6654 133.43 97.6654C113.072 97.6654 95.4466 109.352 86.8748 126.39L86.4728 127.189ZM186.518 144.716V144.722C202.335 145.084 215.054 158.029 215.054 173.95C215.054 190.101 201.974 203.194 185.833 203.194H80.0954C58.639 203.194 41.2424 185.786 41.2424 164.305C41.2424 142.829 58.639 125.415 80.0954 125.415C82.0197 125.415 83.9112 125.563 85.7657 125.832" fill="url(#paint4_linear_101_384)"/>
</g>
<path d="M160.033 219.334C152.107 223.922 146.771 232.487 146.771 242.303C146.771 242.654 146.776 243.002 146.79 243.348C147.439 260.023 172.627 260.023 173.276 243.348C173.29 243.002 173.295 242.654 173.295 242.303C173.298 232.487 167.959 223.922 160.033 219.334Z" fill="#00A3FF"/>
<path d="M109.134 182.709C101.208 187.298 95.8691 195.862 95.8691 205.678C95.8691 206.029 95.8764 206.378 95.8909 206.726C96.5371 223.398 121.728 223.398 122.376 206.726C122.389 206.378 122.396 206.029 122.396 205.678C122.396 195.862 117.06 187.298 109.134 182.709Z" fill="#00A3FF"/>
<path d="M217.956 194.503C210.03 199.092 204.694 207.657 204.694 217.473C204.694 217.824 204.701 218.172 204.713 218.521C205.362 235.193 230.55 235.193 231.199 218.521C231.213 218.172 231.218 217.824 231.218 217.473C231.22 207.657 225.884 199.092 217.956 194.503Z" fill="#00A3FF"/>
<defs>
<filter id="filter0_f_101_384" x="72.2803" y="256.579" width="175.053" height="39.1077" filterUnits="userSpaceOnUse" color-interpolation-filters="sRGB">
<feFlood flood-opacity="0" result="BackgroundImageFix"/>
<feBlend mode="normal" in="SourceGraphic" in2="BackgroundImageFix" result="shape"/>
<feGaussianBlur stdDeviation="7.44908" result="effect1_foregroundBlur_101_384"/>
</filter>
<filter id="filter1_b_101_384" x="10.2046" y="1.44816" width="299.205" height="207.333" filterUnits="userSpaceOnUse" color-interpolation-filters="sRGB">
<feFlood flood-opacity="0" result="BackgroundImageFix"/>
<feGaussianBlur in="BackgroundImageFix" stdDeviation="15.5189"/>
<feComposite in2="SourceAlpha" operator="in" result="effect1_backgroundBlur_101_384"/>
<feBlend mode="normal" in="SourceGraphic" in2="effect1_backgroundBlur_101_384" result="shape"/>
</filter>
<filter id="filter2_b_101_384" x="10.2046" y="1.44816" width="299.205" height="207.333" filterUnits="userSpaceOnUse" color-interpolation-filters="sRGB">
<feFlood flood-opacity="0" result="BackgroundImageFix"/>
<feGaussianBlur in="BackgroundImageFix" stdDeviation="15.5189"/>
<feComposite in2="SourceAlpha" operator="in" result="effect1_backgroundBlur_101_384"/>
<feBlend mode="normal" in="SourceGraphic" in2="effect1_backgroundBlur_101_384" result="shape"/>
</filter>
<filter id="filter3_b_101_384" x="10.2046" y="65.3861" width="235.887" height="168.846" filterUnits="userSpaceOnUse" color-interpolation-filters="sRGB">
<feFlood flood-opacity="0" result="BackgroundImageFix"/>
<feGaussianBlur in="BackgroundImageFix" stdDeviation="15.5189"/>
<feComposite in2="SourceAlpha" operator="in" result="effect1_backgroundBlur_101_384"/>
<feBlend mode="normal" in="SourceGraphic" in2="effect1_backgroundBlur_101_384" result="shape"/>
</filter>
<filter id="filter4_b_101_384" x="10.2046" y="66.6276" width="235.887" height="167.604" filterUnits="userSpaceOnUse" color-interpolation-filters="sRGB">
<feFlood flood-opacity="0" result="BackgroundImageFix"/>
<feGaussianBlur in="BackgroundImageFix" stdDeviation="15.5189"/>
<feComposite in2="SourceAlpha" operator="in" result="effect1_backgroundBlur_101_384"/>
<feBlend mode="normal" in="SourceGraphic" in2="effect1_backgroundBlur_101_384" result="shape"/>
</filter>
<radialGradient id="paint0_radial_101_384" cx="0" cy="0" r="1" gradientUnits="userSpaceOnUse" gradientTransform="translate(159.807 159.741) rotate(90) scale(158.914)">
<stop/>
<stop offset="1"/>
</radialGradient>
<linearGradient id="paint1_linear_101_384" x1="78.7982" y1="57.937" x2="247.023" y2="177.743" gradientUnits="userSpaceOnUse">
<stop stop-color="white" stop-opacity="0.7"/>
<stop offset="1" stop-color="white" stop-opacity="0"/>
</linearGradient>
<linearGradient id="paint2_linear_101_384" x1="23.0839" y1="70.7632" x2="107.986" y2="131.83" gradientUnits="userSpaceOnUse">
<stop stop-color="white"/>
<stop offset="1" stop-color="white" stop-opacity="0"/>
</linearGradient>
<linearGradient id="paint3_linear_101_384" x1="68.7702" y1="115.132" x2="192.309" y2="202.867" gradientUnits="userSpaceOnUse">
<stop stop-color="white" stop-opacity="0.7"/>
<stop offset="1" stop-color="white" stop-opacity="0"/>
</linearGradient>
<linearGradient id="paint4_linear_101_384" x1="27.9325" y1="124.559" x2="90.2836" y2="169.28" gradientUnits="userSpaceOnUse">
<stop stop-color="white"/>
<stop offset="1" stop-color="white" stop-opacity="0"/>
</linearGradient>
</defs>
</svg>
