<svg width="319" height="318" viewBox="0 0 319 318" fill="none" xmlns="http://www.w3.org/2000/svg">
<rect x="0.914795" width="317.827" height="317.827" rx="95.5965" fill="url(#paint0_radial_101_119)"/>
<g filter="url(#filter0_f_101_119)">
<path d="M232.457 277.168C232.457 279.739 199.94 281.823 159.828 281.823C119.717 281.823 87.2 279.739 87.2 277.168C87.2 274.597 119.717 272.512 159.828 272.512C199.94 272.512 232.457 274.597 232.457 277.168Z" fill="black"/>
</g>
<path d="M278.393 127.255C278.393 157.082 254.214 181.261 224.387 181.261C194.56 181.261 170.381 157.082 170.381 127.255C170.381 97.4285 194.56 73.2493 224.387 73.2493C254.214 73.2493 278.393 97.4285 278.393 127.255Z" fill="url(#paint1_linear_101_119)"/>
<g filter="url(#filter1_b_101_119)">
<path d="M278.393 204.793C278.393 226.765 260.548 244.578 238.527 244.578H94.2705C64.9978 244.578 41.2639 220.896 41.2639 191.67C41.2639 162.454 64.9978 138.763 94.2705 138.763C96.8958 138.763 99.4763 138.964 102.006 139.33C113.977 115.603 138.595 99.321 167.034 99.321C201.445 99.321 230.273 123.168 237.847 155.207C238.602 158.406 239.148 161.683 239.462 165.021V165.029C261.04 165.521 278.393 183.133 278.393 204.793Z" fill="url(#paint2_linear_101_119)" fill-opacity="0.8"/>
</g>
<g filter="url(#filter2_b_101_119)">
<path fill-rule="evenodd" clip-rule="evenodd" d="M102.713 140.687L101.829 140.559C99.3533 140.201 96.8323 140.004 94.2705 140.004C65.6813 140.004 42.5054 163.142 42.5054 191.67C42.5054 220.208 65.6812 243.337 94.2705 243.337H238.527C259.864 243.337 277.151 226.077 277.151 204.793C277.151 183.812 260.342 166.747 239.433 166.271L238.22 166.243V165.08C237.911 161.819 237.377 158.618 236.638 155.492C229.195 124.003 200.858 100.563 167.034 100.563C139.081 100.563 114.882 116.565 103.115 139.889L102.713 140.687ZM239.462 165.021V165.029C261.04 165.521 278.393 183.133 278.393 204.793C278.393 226.765 260.548 244.578 238.527 244.578H94.2705C64.9978 244.578 41.2639 220.896 41.2639 191.67C41.2639 162.454 64.9978 138.763 94.2705 138.763C96.8958 138.763 99.4763 138.964 102.006 139.33C113.977 115.603 138.595 99.321 167.034 99.321C201.445 99.321 230.273 123.168 237.847 155.207C238.602 158.406 239.148 161.683 239.462 165.021Z" fill="url(#paint3_linear_101_119)"/>
</g>
<defs>
<filter id="filter0_f_101_119" x="72.3018" y="257.614" width="175.053" height="39.1077" filterUnits="userSpaceOnUse" color-interpolation-filters="sRGB">
<feFlood flood-opacity="0" result="BackgroundImageFix"/>
<feBlend mode="normal" in="SourceGraphic" in2="BackgroundImageFix" result="shape"/>
<feGaussianBlur stdDeviation="7.44908" result="effect1_foregroundBlur_101_119"/>
</filter>
<filter id="filter1_b_101_119" x="10.2261" y="68.2832" width="299.205" height="207.333" filterUnits="userSpaceOnUse" color-interpolation-filters="sRGB">
<feFlood flood-opacity="0" result="BackgroundImageFix"/>
<feGaussianBlur in="BackgroundImageFix" stdDeviation="15.5189"/>
<feComposite in2="SourceAlpha" operator="in" result="effect1_backgroundBlur_101_119"/>
<feBlend mode="normal" in="SourceGraphic" in2="effect1_backgroundBlur_101_119" result="shape"/>
</filter>
<filter id="filter2_b_101_119" x="10.2261" y="68.2832" width="299.205" height="207.333" filterUnits="userSpaceOnUse" color-interpolation-filters="sRGB">
<feFlood flood-opacity="0" result="BackgroundImageFix"/>
<feGaussianBlur in="BackgroundImageFix" stdDeviation="15.5189"/>
<feComposite in2="SourceAlpha" operator="in" result="effect1_backgroundBlur_101_119"/>
<feBlend mode="normal" in="SourceGraphic" in2="effect1_backgroundBlur_101_119" result="shape"/>
</filter>
<radialGradient id="paint0_radial_101_119" cx="0" cy="0" r="1" gradientUnits="userSpaceOnUse" gradientTransform="translate(159.828 158.914) rotate(90) scale(158.914)">
<stop/>
<stop offset="1"/>
</radialGradient>
<linearGradient id="paint1_linear_101_119" x1="246.142" y1="78.2493" x2="200.642" y2="181.249" gradientUnits="userSpaceOnUse">
<stop stop-color="#FFD88B"/>
<stop offset="1" stop-color="#FFA900"/>
</linearGradient>
<linearGradient id="paint2_linear_101_119" x1="78.8197" y1="124.772" x2="247.045" y2="244.578" gradientUnits="userSpaceOnUse">
<stop stop-color="white" stop-opacity="0.7"/>
<stop offset="1" stop-color="white" stop-opacity="0"/>
</linearGradient>
<linearGradient id="paint3_linear_101_119" x1="23.1054" y1="137.598" x2="108.008" y2="198.665" gradientUnits="userSpaceOnUse">
<stop stop-color="white"/>
<stop offset="1" stop-color="white" stop-opacity="0"/>
</linearGradient>
</defs>
</svg>
