<svg width="318" height="319" viewBox="0 0 318 319" fill="none" xmlns="http://www.w3.org/2000/svg">
<rect y="0.654785" width="317.827" height="317.827" rx="95.5965" fill="url(#paint0_radial_101_110)"/>
<g filter="url(#filter0_f_101_110)">
<path d="M231.542 277.823C231.542 280.394 199.025 282.478 158.914 282.478C118.802 282.478 86.2852 280.394 86.2852 277.823C86.2852 275.251 118.802 273.167 158.914 273.167C199.025 273.167 231.542 275.251 231.542 277.823Z" fill="black"/>
</g>
<path d="M277.478 91.2852C277.478 121.112 253.299 145.291 223.472 145.291C193.646 145.291 169.467 121.112 169.467 91.2852C169.467 61.4586 193.646 37.2794 223.472 37.2794C253.299 37.2794 277.478 61.4586 277.478 91.2852Z" fill="url(#paint1_linear_101_110)"/>
<g filter="url(#filter1_b_101_110)">
<path d="M277.478 168.823C277.478 190.795 259.633 208.608 237.612 208.608H93.356C64.0833 208.608 40.3494 184.926 40.3494 155.701C40.3494 126.484 64.0833 102.793 93.356 102.793C95.9813 102.793 98.5618 102.994 101.092 103.36C113.062 79.633 137.681 63.3511 166.119 63.3511C200.531 63.3511 229.358 87.1984 236.932 119.237C237.688 122.436 238.233 125.713 238.547 129.051V129.06C260.126 129.551 277.478 147.163 277.478 168.823Z" fill="url(#paint2_linear_101_110)" fill-opacity="0.8"/>
</g>
<g filter="url(#filter2_b_101_110)">
<path fill-rule="evenodd" clip-rule="evenodd" d="M101.798 104.717L100.914 104.589C98.4387 104.231 95.9177 104.034 93.356 104.034C64.7668 104.034 41.5909 127.172 41.5909 155.701C41.5909 184.238 64.7666 207.367 93.356 207.367H237.612C258.95 207.367 276.237 190.107 276.237 168.823C276.237 147.842 259.427 130.777 238.519 130.301L237.305 130.273V129.11C236.997 125.849 236.462 122.648 235.724 119.522C228.28 88.0328 199.943 64.5926 166.119 64.5926C138.167 64.5926 113.968 80.595 102.2 103.919L101.798 104.717ZM238.547 129.051V129.06C260.126 129.551 277.478 147.163 277.478 168.823C277.478 190.795 259.633 208.608 237.612 208.608H93.356C64.0833 208.608 40.3494 184.926 40.3494 155.701C40.3494 126.484 64.0833 102.793 93.356 102.793C95.9813 102.793 98.5618 102.994 101.092 103.36C113.062 79.633 137.681 63.3511 166.119 63.3511C200.531 63.3511 229.358 87.1984 236.932 119.237C237.688 122.436 238.233 125.713 238.547 129.051Z" fill="url(#paint3_linear_101_110)"/>
</g>
<path d="M159.14 219.161C151.214 223.75 145.878 232.314 145.878 242.13C145.878 242.481 145.883 242.83 145.897 243.176C146.546 259.85 171.734 259.85 172.383 243.176C172.397 242.83 172.402 242.481 172.402 242.13C172.405 232.314 167.066 223.75 159.14 219.161Z" fill="#00A3FF"/>
<path d="M108.24 182.536C100.315 187.125 94.9758 195.69 94.9758 205.506C94.9758 205.856 94.9831 206.205 94.9976 206.553C95.6438 223.226 120.835 223.226 121.483 206.553C121.495 206.205 121.503 205.856 121.503 205.506C121.503 195.69 116.166 187.125 108.24 182.536Z" fill="#00A3FF"/>
<path d="M217.063 194.331C209.137 198.919 203.8 207.484 203.8 217.3C203.8 217.651 203.808 217.999 203.82 218.348C204.468 235.02 229.657 235.02 230.305 218.348C230.32 217.999 230.325 217.651 230.325 217.3C230.327 207.484 224.991 198.919 217.063 194.331Z" fill="#00A3FF"/>
<defs>
<filter id="filter0_f_101_110" x="71.3871" y="258.269" width="175.053" height="39.1077" filterUnits="userSpaceOnUse" color-interpolation-filters="sRGB">
<feFlood flood-opacity="0" result="BackgroundImageFix"/>
<feBlend mode="normal" in="SourceGraphic" in2="BackgroundImageFix" result="shape"/>
<feGaussianBlur stdDeviation="7.44908" result="effect1_foregroundBlur_101_110"/>
</filter>
<filter id="filter1_b_101_110" x="9.31154" y="32.3133" width="299.205" height="207.333" filterUnits="userSpaceOnUse" color-interpolation-filters="sRGB">
<feFlood flood-opacity="0" result="BackgroundImageFix"/>
<feGaussianBlur in="BackgroundImageFix" stdDeviation="15.5189"/>
<feComposite in2="SourceAlpha" operator="in" result="effect1_backgroundBlur_101_110"/>
<feBlend mode="normal" in="SourceGraphic" in2="effect1_backgroundBlur_101_110" result="shape"/>
</filter>
<filter id="filter2_b_101_110" x="9.31154" y="32.3133" width="299.205" height="207.333" filterUnits="userSpaceOnUse" color-interpolation-filters="sRGB">
<feFlood flood-opacity="0" result="BackgroundImageFix"/>
<feGaussianBlur in="BackgroundImageFix" stdDeviation="15.5189"/>
<feComposite in2="SourceAlpha" operator="in" result="effect1_backgroundBlur_101_110"/>
<feBlend mode="normal" in="SourceGraphic" in2="effect1_backgroundBlur_101_110" result="shape"/>
</filter>
<radialGradient id="paint0_radial_101_110" cx="0" cy="0" r="1" gradientUnits="userSpaceOnUse" gradientTransform="translate(158.914 159.568) rotate(90) scale(158.914)">
<stop/>
<stop offset="1"/>
</radialGradient>
<linearGradient id="paint1_linear_101_110" x1="245.228" y1="42.2794" x2="199.728" y2="145.279" gradientUnits="userSpaceOnUse">
<stop stop-color="#FFD88B"/>
<stop offset="1" stop-color="#FFA900"/>
</linearGradient>
<linearGradient id="paint2_linear_101_110" x1="77.9051" y1="88.8022" x2="292.728" y2="211.682" gradientUnits="userSpaceOnUse">
<stop stop-color="white" stop-opacity="0.7"/>
<stop offset="1" stop-color="white" stop-opacity="0"/>
</linearGradient>
<linearGradient id="paint3_linear_101_110" x1="22.1908" y1="101.628" x2="107.093" y2="162.695" gradientUnits="userSpaceOnUse">
<stop stop-color="white"/>
<stop offset="1" stop-color="white" stop-opacity="0"/>
</linearGradient>
</defs>
</svg>
