<svg width="319" height="319" viewBox="0 0 319 319" fill="none" xmlns="http://www.w3.org/2000/svg">
<rect x="0.936035" y="0.482178" width="317.827" height="317.827" rx="95.5965" fill="url(#paint0_radial_101_450)"/>
<g filter="url(#filter0_b_101_450)">
<path d="M278.414 156.235C278.414 178.208 260.569 196.02 238.548 196.02H94.2915C65.0188 196.02 41.2849 172.338 41.2849 143.113C41.2849 113.896 65.0188 90.2053 94.2915 90.2053C96.9168 90.2053 99.4973 90.4064 102.027 90.7724C113.998 67.0453 138.616 50.7634 167.055 50.7634C201.466 50.7634 230.294 74.6107 237.868 106.649C238.623 109.848 239.169 113.125 239.482 116.464V116.472C261.061 116.964 278.414 134.575 278.414 156.235Z" fill="url(#paint1_linear_101_450)" fill-opacity="0.8"/>
</g>
<g filter="url(#filter1_b_101_450)">
<path fill-rule="evenodd" clip-rule="evenodd" d="M102.734 92.129L101.85 92.0011C99.3743 91.643 96.8533 91.4468 94.2915 91.4468C65.7023 91.4468 42.5264 114.584 42.5264 143.113C42.5264 171.65 65.7022 194.779 94.2915 194.779H238.548C259.885 194.779 277.172 177.52 277.172 156.235C277.172 135.254 260.363 118.189 239.454 117.713L238.241 117.685V116.522C237.932 113.262 237.398 110.061 236.659 106.935C229.216 75.4451 200.879 52.0049 167.055 52.0049C139.102 52.0049 114.903 68.0073 103.136 91.3316L102.734 92.129ZM239.482 116.464V116.472C261.061 116.964 278.414 134.575 278.414 156.235C278.414 178.208 260.569 196.02 238.548 196.02H94.2915C65.0188 196.02 41.2849 172.338 41.2849 143.113C41.2849 113.896 65.0188 90.2053 94.2915 90.2053C96.9168 90.2053 99.4973 90.4064 102.027 90.7724C113.998 67.0453 138.616 50.7634 167.055 50.7634C201.466 50.7634 230.294 74.6107 237.868 106.649C238.623 109.848 239.169 113.125 239.482 116.464Z" fill="url(#paint2_linear_101_450)"/>
</g>
<g filter="url(#filter2_f_101_450)">
<path d="M232.478 275.788C232.478 278.359 199.961 280.443 159.849 280.443C119.738 280.443 87.2209 278.359 87.2209 275.788C87.2209 273.216 119.738 271.132 159.849 271.132C199.961 271.132 232.478 273.216 232.478 275.788Z" fill="black"/>
</g>
<path d="M111.101 212.161C110.422 210.995 108.921 210.597 107.747 211.269L102.712 214.152V208.387C102.712 207.043 101.612 205.953 100.256 205.953C98.9008 205.953 97.8011 207.043 97.8011 208.387V214.152L92.766 211.269C91.5917 210.596 90.0907 210.995 89.4122 212.161C88.735 213.325 89.1363 214.813 90.3106 215.486L95.3457 218.368L90.3106 221.249C89.1363 221.922 88.735 223.41 89.4122 224.575C89.867 225.356 90.6921 225.793 91.5408 225.793C91.9571 225.793 92.3796 225.687 92.766 225.467L97.8011 222.584V228.348C97.8011 229.692 98.9008 230.783 100.256 230.783C101.612 230.783 102.712 229.692 102.712 228.348V222.584L107.747 225.467C108.133 225.687 108.556 225.793 108.972 225.793C109.821 225.793 110.646 225.356 111.101 224.575C111.779 223.41 111.377 221.922 110.202 221.249L105.167 218.368L110.202 215.486C111.377 214.813 111.779 213.325 111.101 212.161Z" fill="#818494"/>
<path d="M229.387 221.249L224.352 218.368L229.387 215.486C230.562 214.813 230.964 213.325 230.286 212.161C229.607 210.995 228.106 210.597 226.932 211.269L221.897 214.152V208.387C221.897 207.043 220.797 205.952 219.441 205.952C218.086 205.952 216.986 207.043 216.986 208.387V214.152L211.951 211.269C210.777 210.596 209.276 210.995 208.597 212.161C207.92 213.325 208.321 214.813 209.496 215.486L214.531 218.368L209.496 221.249C208.321 221.922 207.92 223.41 208.597 224.574C209.052 225.356 209.877 225.793 210.726 225.793C211.142 225.793 211.564 225.687 211.951 225.466L216.986 222.584V228.348C216.986 229.692 218.086 230.783 219.441 230.783C220.797 230.783 221.897 229.692 221.897 228.348V222.584L226.932 225.466C227.318 225.687 227.741 225.793 228.157 225.793C229.006 225.793 229.831 225.356 230.286 224.574C230.964 223.41 230.562 221.922 229.387 221.249Z" fill="#818494"/>
<path d="M170.693 212.161C170.015 210.996 168.514 210.597 167.339 211.269L162.304 214.152V208.387C162.304 207.043 161.205 205.952 159.849 205.952C158.493 205.952 157.394 207.043 157.394 208.387V214.152L152.359 211.269C151.185 210.597 149.683 210.996 149.005 212.161C148.327 213.325 148.729 214.813 149.903 215.486L154.938 218.368L149.903 221.249C148.729 221.922 148.327 223.41 149.005 224.574C149.46 225.356 150.285 225.793 151.134 225.793C151.55 225.793 151.972 225.687 152.359 225.466L157.394 222.584V228.348C157.394 229.692 158.493 230.783 159.849 230.783C161.205 230.783 162.304 229.692 162.304 228.348V222.585L167.339 225.466C167.726 225.688 168.148 225.793 168.565 225.793C169.413 225.793 170.238 225.356 170.693 224.576C171.37 223.411 170.969 221.922 169.795 221.25L164.76 218.368L169.795 215.486C170.969 214.813 171.371 213.325 170.693 212.161Z" fill="#818494"/>
<path d="M123.598 242.888C123.089 242.014 121.964 241.715 121.083 242.219L117.307 244.381V240.058C117.307 239.05 116.482 238.232 115.465 238.232C114.448 238.232 113.624 239.05 113.624 240.058V244.381L109.847 242.219C108.967 241.715 107.841 242.014 107.332 242.888C106.824 243.761 107.125 244.877 108.006 245.382L111.782 247.543L108.006 249.705C107.125 250.209 106.824 251.325 107.332 252.198C107.673 252.784 108.292 253.112 108.928 253.112C109.241 253.112 109.557 253.033 109.847 252.867L113.624 250.705V255.029C113.624 256.037 114.448 256.855 115.465 256.855C116.482 256.855 117.307 256.037 117.307 255.029V250.705L121.083 252.867C121.373 253.033 121.69 253.112 122.002 253.112C122.638 253.112 123.257 252.784 123.598 252.198C124.107 251.325 123.805 250.209 122.924 249.705L119.148 247.543L122.924 245.382C123.805 244.877 124.107 243.761 123.598 242.888Z" fill="#818494"/>
<path d="M212.313 249.704L208.537 247.543L212.313 245.382C213.194 244.877 213.496 243.761 212.987 242.888C212.478 242.014 211.352 241.715 210.472 242.219L206.695 244.381V240.058C206.695 239.05 205.871 238.232 204.854 238.232C203.837 238.232 203.012 239.05 203.012 240.058V244.381L199.236 242.219C198.355 241.714 197.229 242.014 196.721 242.888C196.213 243.761 196.514 244.877 197.394 245.382L201.171 247.543L197.394 249.704C196.514 250.209 196.213 251.325 196.721 252.198C197.062 252.784 197.68 253.112 198.317 253.112C198.629 253.112 198.946 253.033 199.236 252.867L203.012 250.705V255.029C203.012 256.037 203.837 256.855 204.854 256.855C205.871 256.855 206.695 256.037 206.695 255.029V250.705L210.472 252.867C210.761 253.033 211.078 253.112 211.391 253.112C212.027 253.112 212.646 252.784 212.987 252.198C213.496 251.325 213.194 250.209 212.313 249.704Z" fill="#818494"/>
<path d="M168.292 242.888C167.784 242.015 166.658 241.715 165.777 242.219L162.001 244.381V240.058C162.001 239.05 161.176 238.232 160.159 238.232C159.143 238.232 158.318 239.05 158.318 240.058V244.381L154.542 242.219C153.661 241.715 152.535 242.015 152.026 242.888C151.518 243.761 151.819 244.877 152.7 245.382L156.476 247.543L152.7 249.704C151.819 250.209 151.518 251.325 152.026 252.198C152.367 252.784 152.986 253.112 153.623 253.112C153.935 253.112 154.252 253.033 154.542 252.867L158.318 250.705V255.029C158.318 256.037 159.143 256.855 160.159 256.855C161.176 256.855 162.001 256.037 162.001 255.029V250.706L165.777 252.867C166.067 253.034 166.384 253.112 166.696 253.112C167.333 253.112 167.951 252.784 168.292 252.199C168.8 251.326 168.499 250.209 167.619 249.705L163.842 247.543L167.619 245.382C168.499 244.877 168.801 243.761 168.292 242.888Z" fill="#818494"/>
<defs>
<filter id="filter0_b_101_450" x="10.2471" y="19.7256" width="299.205" height="207.333" filterUnits="userSpaceOnUse" color-interpolation-filters="sRGB">
<feFlood flood-opacity="0" result="BackgroundImageFix"/>
<feGaussianBlur in="BackgroundImageFix" stdDeviation="15.5189"/>
<feComposite in2="SourceAlpha" operator="in" result="effect1_backgroundBlur_101_450"/>
<feBlend mode="normal" in="SourceGraphic" in2="effect1_backgroundBlur_101_450" result="shape"/>
</filter>
<filter id="filter1_b_101_450" x="10.2471" y="19.7256" width="299.205" height="207.333" filterUnits="userSpaceOnUse" color-interpolation-filters="sRGB">
<feFlood flood-opacity="0" result="BackgroundImageFix"/>
<feGaussianBlur in="BackgroundImageFix" stdDeviation="15.5189"/>
<feComposite in2="SourceAlpha" operator="in" result="effect1_backgroundBlur_101_450"/>
<feBlend mode="normal" in="SourceGraphic" in2="effect1_backgroundBlur_101_450" result="shape"/>
</filter>
<filter id="filter2_f_101_450" x="72.3228" y="256.234" width="175.053" height="39.1077" filterUnits="userSpaceOnUse" color-interpolation-filters="sRGB">
<feFlood flood-opacity="0" result="BackgroundImageFix"/>
<feBlend mode="normal" in="SourceGraphic" in2="BackgroundImageFix" result="shape"/>
<feGaussianBlur stdDeviation="7.44908" result="effect1_foregroundBlur_101_450"/>
</filter>
<radialGradient id="paint0_radial_101_450" cx="0" cy="0" r="1" gradientUnits="userSpaceOnUse" gradientTransform="translate(159.85 159.396) rotate(90) scale(158.914)">
<stop/>
<stop offset="1"/>
</radialGradient>
<linearGradient id="paint1_linear_101_450" x1="78.8407" y1="76.2145" x2="247.066" y2="196.02" gradientUnits="userSpaceOnUse">
<stop stop-color="white" stop-opacity="0.7"/>
<stop offset="1" stop-color="white" stop-opacity="0"/>
</linearGradient>
<linearGradient id="paint2_linear_101_450" x1="23.1264" y1="89.0406" x2="108.029" y2="150.108" gradientUnits="userSpaceOnUse">
<stop stop-color="white"/>
<stop offset="1" stop-color="white" stop-opacity="0"/>
</linearGradient>
</defs>
</svg>
