<svg width="319" height="318" viewBox="0 0 319 318" fill="none" xmlns="http://www.w3.org/2000/svg">
<g clip-path="url(#clip0_101_171)">
<rect x="0.957397" width="317.827" height="317.827" rx="95.5965" fill="url(#paint0_radial_101_171)"/>
<g filter="url(#filter0_f_101_171)">
<path d="M232.5 275.306C232.5 277.877 199.983 279.961 159.871 279.961C119.76 279.961 87.2427 277.877 87.2427 275.306C87.2427 272.734 119.76 270.65 159.871 270.65C199.983 270.65 232.5 272.734 232.5 275.306Z" fill="black"/>
</g>
<g filter="url(#filter1_f_101_171)">
<path fill-rule="evenodd" clip-rule="evenodd" d="M159.871 246.44C208.211 246.44 247.398 207.253 247.398 158.914C247.398 110.574 208.211 71.387 159.871 71.387C111.532 71.387 72.3445 110.574 72.3445 158.914C72.3445 207.253 111.532 246.44 159.871 246.44ZM159.871 247.061C208.554 247.061 248.019 207.596 248.019 158.914C248.019 110.231 208.554 70.7662 159.871 70.7662C111.189 70.7662 71.7238 110.231 71.7238 158.914C71.7238 207.596 111.189 247.061 159.871 247.061Z" fill="#FFD787"/>
</g>
<path d="M225.671 159.224C225.671 195.736 196.073 225.335 159.561 225.335C123.049 225.335 93.4502 195.736 93.4502 159.224C93.4502 122.712 123.049 93.1135 159.561 93.1135C196.073 93.1135 225.671 122.712 225.671 159.224Z" fill="url(#paint1_linear_101_171)"/>
<g filter="url(#filter2_b_101_171)">
<path d="M0.95752 162.017H318.785V317.827H0.95752V162.017Z" fill="url(#paint2_linear_101_171)" fill-opacity="0.2"/>
</g>
<g clip-path="url(#clip1_101_171)">
<path d="M221.069 70.6085C221.279 70.4795 221.501 70.3639 221.73 70.2752C222.214 70.0874 222.547 69.7457 222.669 69.257C222.846 68.5405 223.402 68.2242 224.003 68.1455C225.16 67.9946 225.883 67.2255 226.499 66.4199C226.959 65.8187 227.133 64.9933 226.848 64.1859C226.782 63.9994 226.777 63.8491 226.852 63.6312C226.946 63.3586 226.841 63.0128 226.807 62.7002C226.468 59.6338 225.259 56.8932 223.655 54.3011C223.503 54.0561 223.351 53.8115 223.198 53.5678C222.805 52.9411 222.643 52.2645 222.551 51.5215C222.355 49.9499 222.296 48.3564 221.818 46.8213C221.323 45.2347 221.359 43.6176 221.648 41.9837C221.798 41.1398 221.764 40.2647 221.851 39.4075C222.051 37.4414 222.51 35.541 223.47 33.7972C223.898 33.0202 224.397 32.2813 224.889 31.5417C225.092 31.237 225.332 30.9151 225.793 31.0849C226.035 31.1742 226.358 31.7913 226.338 32.1266C226.332 32.2215 226.285 32.3177 226.295 32.4092C226.316 32.6016 226.362 32.7913 226.398 32.9821C226.453 33.2679 226.524 33.5518 226.558 33.8398C226.589 34.1062 226.581 34.3775 226.588 34.6467C226.596 34.9608 226.619 35.2758 226.603 35.5887C226.576 36.1082 226.542 36.6059 226.802 37.1068C226.942 37.3775 226.864 37.7542 226.927 38.0746C226.993 38.4126 227.118 38.7387 227.204 39.0729C227.334 39.5748 227.478 40.075 227.572 40.5841C227.736 41.4698 227.84 42.3672 228.018 43.2501C228.25 44.4031 228.537 45.5452 228.786 46.6951C228.893 47.1871 228.954 47.689 229.054 48.1826C229.089 48.3528 229.186 48.5093 229.243 48.676C229.34 48.9631 229.429 49.2526 229.517 49.5425C229.533 49.5935 229.51 49.6589 229.532 49.7051C229.817 50.3082 230.108 50.9081 230.395 51.5102C230.551 51.8372 230.704 52.1664 230.854 52.4957C230.883 52.5573 230.891 52.6281 230.92 52.6894C231.528 53.9697 232.177 55.2332 232.737 56.534C233.356 57.9697 233.775 59.4623 233.96 61.0329C234.148 62.6334 234.461 64.2203 234.76 65.8058C234.852 66.2927 235.063 66.7597 235.244 67.2263C235.36 67.5276 235.787 67.6883 236.12 67.6106C237.882 67.1993 239.65 66.7547 241.467 66.7861C242.555 66.805 243.637 67.076 244.724 67.2113C248.015 67.6201 251.305 68.0332 254.599 68.4146C256.92 68.6834 259.246 68.7334 261.567 68.3863C261.689 68.3681 261.812 68.3611 261.935 68.3577C261.971 68.3567 262.007 68.3856 262.133 68.4395C261.957 68.5643 261.849 68.692 261.717 68.7253C261.135 68.8715 260.547 69.0004 259.958 69.1168C259.465 69.2143 258.956 69.2466 258.472 69.3765C257.358 69.6758 256.251 69.557 255.134 69.4274C254.201 69.3193 253.262 69.2334 252.324 69.2086C251.969 69.1992 251.613 69.4218 251.249 69.4777C250.852 69.5387 250.445 69.5377 250.042 69.5481C249.582 69.5601 249.122 69.5519 248.662 69.5572C248.17 69.5632 247.668 69.5141 247.188 69.5974C246.412 69.7327 245.651 69.954 244.885 70.1433C244.12 70.3323 243.358 70.531 242.593 70.7175C242.053 70.8492 241.51 70.9695 240.967 71.0888C240.89 71.1057 240.791 71.1167 240.726 71.0831C240.43 70.9268 240.266 71.0357 240.199 71.3805C239.855 71.2764 239.544 71.1825 239.234 71.0885C239.21 71.1246 239.186 71.1607 239.162 71.1969C240.478 72.0802 241.771 73.0014 243.118 73.8359C244.474 74.6758 246.022 75.0437 247.588 75.3361C247.58 75.4015 247.573 75.4669 247.566 75.5326C247.217 75.5849 246.852 75.7282 246.521 75.6713C245.711 75.5317 244.917 75.2984 244.115 75.1056C243.955 75.0673 243.821 74.9899 243.659 75.1946C243.572 75.3053 243.275 75.2845 243.078 75.2679C242.587 75.2263 242.1 75.1345 241.609 75.0996C241.301 75.0776 240.987 75.1222 240.676 75.1352C240.555 75.1401 240.404 75.1883 240.316 75.1352C239.585 74.6915 238.77 74.8578 237.998 74.8475C236.755 74.8307 235.507 74.9006 234.265 74.9896C233.053 75.0764 231.909 74.861 230.804 74.3855C229.33 73.7507 227.824 73.2262 226.254 72.8669C225.373 72.6653 224.488 72.4458 223.727 71.8584C223.046 71.3328 222.232 71.3207 221.419 71.6176C221.014 71.7654 220.599 71.8824 220.103 72.0401C220.237 71.3593 220.562 70.9198 221.069 70.6085Z" fill="#818494"/>
</g>
<g clip-path="url(#clip2_101_171)">
<path d="M248.323 107.287C248.426 107.223 248.535 107.167 248.647 107.123C248.885 107.031 249.049 106.863 249.108 106.623C249.195 106.271 249.468 106.116 249.763 106.078C250.331 106.003 250.686 105.626 250.989 105.23C251.215 104.935 251.3 104.53 251.16 104.134C251.128 104.042 251.125 103.968 251.162 103.861C251.208 103.728 251.157 103.558 251.14 103.404C250.973 101.899 250.38 100.554 249.592 99.2812C249.518 99.161 249.443 99.0409 249.368 98.9213C249.175 98.6136 249.096 98.2814 249.05 97.9167C248.954 97.1452 248.925 96.3629 248.69 95.6093C248.448 94.8305 248.465 94.0366 248.607 93.2345C248.681 92.8202 248.664 92.3906 248.707 91.9698C248.805 91.0047 249.031 90.0717 249.502 89.2157C249.712 88.8342 249.957 88.4715 250.198 88.1084C250.298 87.9588 250.416 87.8008 250.642 87.8842C250.761 87.928 250.919 88.231 250.91 88.3956C250.907 88.4422 250.884 88.4894 250.889 88.5343C250.899 88.6288 250.921 88.7219 250.939 88.8155C250.966 88.9558 251.001 89.0952 251.017 89.2366C251.033 89.3674 251.029 89.5006 251.032 89.6327C251.036 89.7869 251.047 89.9416 251.039 90.0952C251.026 90.3501 251.01 90.5945 251.137 90.8404C251.206 90.9733 251.168 91.1582 251.198 91.3155C251.231 91.4814 251.292 91.6415 251.335 91.8056C251.398 92.0519 251.469 92.2975 251.515 92.5474C251.596 92.9822 251.647 93.4228 251.734 93.8562C251.848 94.4222 251.989 94.9829 252.111 95.5474C252.164 95.7889 252.194 96.0353 252.243 96.2776C252.26 96.3611 252.308 96.438 252.335 96.5198C252.383 96.6607 252.427 96.8029 252.47 96.9452C252.478 96.9702 252.467 97.0023 252.477 97.025C252.617 97.3211 252.76 97.6156 252.901 97.9112C252.978 98.0717 253.053 98.2333 253.127 98.3949C253.141 98.4252 253.145 98.4599 253.159 98.49C253.458 99.1186 253.776 99.7388 254.051 100.377C254.355 101.082 254.561 101.815 254.651 102.586C254.743 103.372 254.897 104.151 255.044 104.929C255.089 105.168 255.193 105.397 255.281 105.626C255.339 105.774 255.548 105.853 255.711 105.815C256.576 105.613 257.444 105.395 258.336 105.41C258.87 105.42 259.402 105.553 259.935 105.619C261.551 105.82 263.166 106.022 264.783 106.21C265.923 106.342 267.064 106.366 268.204 106.196C268.263 106.187 268.324 106.183 268.385 106.182C268.402 106.181 268.42 106.195 268.482 106.222C268.395 106.283 268.342 106.346 268.277 106.362C267.992 106.434 267.703 106.497 267.414 106.554C267.172 106.602 266.922 106.618 266.684 106.682C266.138 106.829 265.594 106.77 265.045 106.707C264.588 106.654 264.127 106.612 263.666 106.599C263.492 106.595 263.317 106.704 263.139 106.732C262.944 106.762 262.744 106.761 262.546 106.766C262.32 106.772 262.094 106.768 261.868 106.771C261.627 106.774 261.38 106.749 261.145 106.79C260.764 106.857 260.39 106.965 260.014 107.058C259.639 107.151 259.265 107.249 258.889 107.34C258.624 107.405 258.357 107.464 258.091 107.522C258.053 107.531 258.004 107.536 257.973 107.52C257.827 107.443 257.747 107.496 257.714 107.666C257.545 107.615 257.393 107.568 257.24 107.522C257.228 107.54 257.217 107.558 257.205 107.576C257.851 108.009 258.486 108.461 259.147 108.871C259.813 109.283 260.572 109.464 261.341 109.607C261.338 109.64 261.334 109.672 261.33 109.704C261.159 109.73 260.98 109.8 260.818 109.772C260.42 109.704 260.03 109.589 259.636 109.494C259.558 109.476 259.492 109.438 259.413 109.538C259.37 109.592 259.224 109.582 259.127 109.574C258.886 109.554 258.647 109.509 258.406 109.491C258.255 109.481 258.101 109.503 257.948 109.509C257.889 109.511 257.815 109.535 257.771 109.509C257.412 109.291 257.013 109.373 256.634 109.368C256.023 109.359 255.411 109.394 254.801 109.437C254.206 109.48 253.644 109.374 253.102 109.141C252.378 108.829 251.639 108.572 250.868 108.395C250.436 108.296 250.001 108.189 249.628 107.9C249.293 107.642 248.894 107.636 248.495 107.782C248.296 107.855 248.092 107.912 247.849 107.989C247.914 107.655 248.074 107.439 248.323 107.287Z" fill="#818494"/>
</g>
<g clip-path="url(#clip3_101_171)">
<path d="M217.477 101.604C217.579 101.541 217.688 101.484 217.801 101.441C218.039 101.348 218.202 101.181 218.262 100.941C218.349 100.589 218.621 100.434 218.917 100.395C219.485 100.321 219.839 99.9434 220.142 99.548C220.368 99.2528 220.453 98.8476 220.313 98.4513C220.281 98.3597 220.278 98.2859 220.315 98.179C220.362 98.0452 220.31 97.8754 220.293 97.7219C220.127 96.2166 219.533 94.8712 218.746 93.5987C218.671 93.4785 218.597 93.3584 218.522 93.2388C218.329 92.9311 218.249 92.5989 218.204 92.2342C218.108 91.4627 218.079 90.6804 217.844 89.9268C217.601 89.148 217.619 88.3541 217.761 87.552C217.834 87.1377 217.817 86.7081 217.86 86.2874C217.958 85.3222 218.184 84.3892 218.655 83.5332C218.865 83.1517 219.11 82.789 219.352 82.4259C219.451 82.2764 219.569 82.1183 219.795 82.2017C219.914 82.2455 220.073 82.5485 220.063 82.7131C220.06 82.7597 220.037 82.8069 220.042 82.8518C220.052 82.9463 220.075 83.0394 220.093 83.133C220.119 83.2733 220.154 83.4127 220.171 83.5541C220.186 83.6849 220.182 83.8181 220.186 83.9502C220.19 84.1044 220.201 84.2591 220.193 84.4127C220.18 84.6677 220.163 84.912 220.291 85.1579C220.36 85.2908 220.321 85.4757 220.352 85.633C220.384 85.7989 220.446 85.959 220.488 86.1231C220.552 86.3695 220.622 86.615 220.669 86.8649C220.749 87.2997 220.8 87.7403 220.888 88.1737C221.002 88.7397 221.143 89.3004 221.265 89.8649C221.317 90.1064 221.347 90.3528 221.396 90.5951C221.413 90.6787 221.461 90.7555 221.489 90.8373C221.537 90.9783 221.58 91.1204 221.624 91.2627C221.631 91.2877 221.62 91.3198 221.631 91.3425C221.771 91.6386 221.914 91.9331 222.055 92.2287C222.131 92.3892 222.206 92.5508 222.28 92.7124C222.294 92.7427 222.298 92.7774 222.312 92.8075C222.611 93.4361 222.929 94.0563 223.204 94.6949C223.508 95.3997 223.714 96.1324 223.804 96.9034C223.897 97.6891 224.051 98.4681 224.197 99.2465C224.242 99.4855 224.346 99.7148 224.435 99.9438C224.492 100.092 224.702 100.171 224.865 100.132C225.73 99.9306 226.598 99.7123 227.49 99.7277C228.024 99.737 228.555 99.8701 229.089 99.9365C230.704 100.137 232.32 100.34 233.937 100.527C235.076 100.659 236.218 100.684 237.357 100.513C237.417 100.504 237.477 100.501 237.538 100.499C237.555 100.499 237.573 100.513 237.635 100.539C237.549 100.601 237.496 100.663 237.431 100.68C237.145 100.751 236.857 100.815 236.567 100.872C236.325 100.92 236.075 100.936 235.838 100.999C235.291 101.146 234.748 101.088 234.199 101.024C233.741 100.971 233.28 100.929 232.82 100.917C232.645 100.912 232.471 101.022 232.292 101.049C232.097 101.079 231.897 101.079 231.7 101.084C231.474 101.089 231.248 101.085 231.022 101.088C230.78 101.091 230.534 101.067 230.299 101.108C229.918 101.174 229.544 101.283 229.168 101.376C228.792 101.469 228.418 101.566 228.043 101.658C227.777 101.722 227.511 101.781 227.244 101.84C227.207 101.848 227.158 101.854 227.126 101.837C226.981 101.76 226.9 101.814 226.867 101.983C226.698 101.932 226.546 101.886 226.394 101.84C226.382 101.858 226.37 101.875 226.358 101.893C227.005 102.327 227.639 102.779 228.3 103.189C228.966 103.601 229.726 103.781 230.495 103.925C230.491 103.957 230.487 103.989 230.484 104.021C230.312 104.047 230.133 104.117 229.971 104.09C229.573 104.021 229.183 103.906 228.79 103.812C228.711 103.793 228.645 103.755 228.566 103.856C228.523 103.91 228.378 103.9 228.281 103.892C228.04 103.871 227.801 103.826 227.56 103.809C227.408 103.798 227.254 103.82 227.102 103.826C227.042 103.829 226.968 103.852 226.925 103.826C226.566 103.609 226.166 103.69 225.787 103.685C225.177 103.677 224.564 103.711 223.955 103.755C223.36 103.797 222.798 103.692 222.256 103.458C221.532 103.147 220.793 102.889 220.022 102.713C219.589 102.614 219.155 102.506 218.781 102.218C218.447 101.96 218.047 101.954 217.648 102.1C217.449 102.172 217.245 102.23 217.002 102.307C217.068 101.973 217.228 101.757 217.477 101.604Z" fill="#818494"/>
</g>
</g>
<defs>
<filter id="filter0_f_101_171" x="72.3445" y="255.752" width="175.053" height="39.1077" filterUnits="userSpaceOnUse" color-interpolation-filters="sRGB">
<feFlood flood-opacity="0" result="BackgroundImageFix"/>
<feBlend mode="normal" in="SourceGraphic" in2="BackgroundImageFix" result="shape"/>
<feGaussianBlur stdDeviation="7.44908" result="effect1_foregroundBlur_101_171"/>
</filter>
<filter id="filter1_f_101_171" x="64.2747" y="63.3172" width="191.193" height="191.193" filterUnits="userSpaceOnUse" color-interpolation-filters="sRGB">
<feFlood flood-opacity="0" result="BackgroundImageFix"/>
<feBlend mode="normal" in="SourceGraphic" in2="BackgroundImageFix" result="shape"/>
<feGaussianBlur stdDeviation="3.72454" result="effect1_foregroundBlur_101_171"/>
</filter>
<filter id="filter2_b_101_171" x="-30.0803" y="130.98" width="379.903" height="217.886" filterUnits="userSpaceOnUse" color-interpolation-filters="sRGB">
<feFlood flood-opacity="0" result="BackgroundImageFix"/>
<feGaussianBlur in="BackgroundImageFix" stdDeviation="15.5189"/>
<feComposite in2="SourceAlpha" operator="in" result="effect1_backgroundBlur_101_171"/>
<feBlend mode="normal" in="SourceGraphic" in2="effect1_backgroundBlur_101_171" result="shape"/>
</filter>
<radialGradient id="paint0_radial_101_171" cx="0" cy="0" r="1" gradientUnits="userSpaceOnUse" gradientTransform="translate(159.871 158.914) rotate(90) scale(158.914)">
<stop/>
<stop offset="1"/>
</radialGradient>
<linearGradient id="paint1_linear_101_171" x1="186.192" y1="99.2342" x2="130.494" y2="225.32" gradientUnits="userSpaceOnUse">
<stop stop-color="#FFD88B"/>
<stop offset="1" stop-color="#FFA900"/>
</linearGradient>
<linearGradient id="paint2_linear_101_171" x1="159.871" y1="164.811" x2="159.871" y2="320.931" gradientUnits="userSpaceOnUse">
<stop stop-color="white"/>
<stop offset="1" stop-color="white" stop-opacity="0"/>
</linearGradient>
<clipPath id="clip0_101_171">
<rect x="0.957397" width="317.827" height="317.827" rx="95.5965" fill="white"/>
</clipPath>
<clipPath id="clip1_101_171">
<rect width="44.6467" height="44.6467" fill="white" transform="matrix(-1 0 0 1 263.442 31.0378)"/>
</clipPath>
<clipPath id="clip2_101_171">
<rect width="21.9175" height="21.9175" fill="white" transform="matrix(-1 0 0 1 269.124 87.861)"/>
</clipPath>
<clipPath id="clip3_101_171">
<rect width="21.9175" height="21.9175" fill="white" transform="matrix(-1 0 0 1 238.277 82.1786)"/>
</clipPath>
</defs>
</svg>
